<svg width="114" height="58" viewBox="0 0 114 58" fill="none" xmlns="http://www.w3.org/2000/svg">
<g filter="url(#filter0_d_9564_7574)">
<circle cx="29" cy="25" r="25" fill="white"/>
<path d="M40.1368 16.4478L33.4891 32.8045C33.3947 33.0368 33.2643 33.2438 33.1053 33.4136C32.9463 33.5835 32.7618 33.7129 32.5624 33.7945C32.3631 33.8762 32.1526 33.9083 31.9432 33.8893C31.7338 33.8702 31.5294 33.8002 31.3418 33.6833C31.1542 33.5665 30.9871 33.405 30.8499 33.2081C30.7127 33.0113 30.6081 32.7829 30.5422 32.536C30.4763 32.2891 30.4503 32.0286 30.4657 31.7693C30.4811 31.51 30.5377 31.257 30.632 31.0247L37.2775 14.668L40.1368 16.4478Z" fill="#F58220"/>
<path d="M32.0626 33.8963C31.7641 33.8947 31.4719 33.79 31.2188 33.5941C30.9656 33.3983 30.7616 33.1189 30.6296 32.7873L26.3867 22.2913C26.2064 21.8225 26.1819 21.2849 26.3184 20.794C26.4549 20.3031 26.7415 19.8981 27.1166 19.666C27.4917 19.434 27.9254 19.3934 28.3244 19.5531C28.7234 19.7127 29.0559 20.0598 29.2504 20.5198L33.5046 31.0269C33.626 31.3291 33.6833 31.6647 33.6708 32.0019C33.6584 32.3391 33.5767 32.6668 33.4334 32.9541C33.2902 33.2413 33.0902 33.4786 32.8523 33.6434C32.6144 33.8083 32.3465 33.8953 32.0738 33.8963" fill="#F58220"/>
<path d="M32.0604 33.8941C31.9915 33.8941 31.9227 33.8885 31.8544 33.8775H31.8119C31.7581 33.8775 31.7044 33.8525 31.6529 33.8359L31.5992 33.8165C31.5499 33.7971 31.5029 33.7777 31.4559 33.7527L31.3977 33.7222C31.3466 33.6953 31.2972 33.6638 31.2499 33.628L31.2253 33.6113C31.1056 33.5187 30.9957 33.4079 30.8984 33.2814L30.8849 33.262C30.7839 33.1279 30.6987 32.9767 30.6319 32.8129C30.5193 32.537 30.4607 32.2321 30.4607 31.923C30.4607 31.6138 30.5193 31.309 30.6319 31.0331L32.0649 27.5039L33.4912 31.0386C33.5977 31.3129 33.6517 31.614 33.649 31.9183C33.6463 32.2227 33.5869 32.5222 33.4755 32.7935C33.4082 32.9553 33.3238 33.1054 33.2247 33.2398L33.209 33.2593C33.1616 33.3226 33.1107 33.3819 33.0568 33.4367C33.0015 33.4916 32.9431 33.5416 32.8821 33.5864L32.8598 33.603C32.8105 33.6391 32.7612 33.6696 32.712 33.7001L32.6515 33.7305C32.6045 33.7527 32.5597 33.7749 32.5105 33.7915L32.4567 33.8109C32.4052 33.8276 32.3515 33.8414 32.2978 33.8525H32.2552C32.1869 33.8636 32.1181 33.8691 32.0492 33.8692" fill="#CCCCCC"/>
<path d="M32.0604 33.8941C31.9915 33.8941 31.9227 33.8885 31.8544 33.8775H31.8119C31.7581 33.8775 31.7044 33.8525 31.6529 33.8359L31.5992 33.8165C31.5499 33.7971 31.5029 33.7777 31.4559 33.7527L31.3977 33.7222C31.3466 33.6953 31.2972 33.6638 31.2499 33.628L31.2253 33.6113C31.1056 33.5187 30.9957 33.4079 30.8984 33.2814L30.8849 33.262C30.7839 33.1279 30.6987 32.9767 30.6319 32.8129C30.5193 32.537 30.4607 32.2321 30.4607 31.923C30.4607 31.6138 30.5193 31.309 30.6319 31.0331L32.0649 27.5039L33.4912 31.0386C33.5977 31.3129 33.6517 31.614 33.649 31.9183C33.6463 32.2227 33.5869 32.5222 33.4755 32.7935C33.4082 32.9553 33.3238 33.1054 33.2247 33.2398L33.209 33.2593C33.1616 33.3226 33.1107 33.3819 33.0568 33.4367C33.0015 33.4916 32.9431 33.5416 32.8821 33.5864L32.8598 33.603C32.8105 33.6391 32.7612 33.6696 32.712 33.7001L32.6515 33.7305C32.6045 33.7527 32.5597 33.7749 32.5105 33.7915L32.4567 33.8109C32.4052 33.8276 32.3515 33.8414 32.2978 33.8525H32.2552C32.1869 33.8636 32.1181 33.8691 32.0492 33.8692" fill="#A95B21"/>
<path d="M18.3106 33.8956C18.0379 33.8946 17.77 33.8076 17.5321 33.6427C17.2942 33.4779 17.0942 33.2406 16.951 32.9534C16.8077 32.6661 16.726 32.3384 16.7136 32.0012C16.7011 31.664 16.7584 31.3284 16.8798 31.0262L19.5241 24.4835C19.7139 24.0137 20.0466 23.6564 20.449 23.4903C20.6483 23.4081 20.8587 23.3752 21.0683 23.3937C21.2778 23.4121 21.4824 23.4815 21.6703 23.5978C21.8581 23.7141 22.0257 23.8751 22.1633 24.0716C22.301 24.2681 22.406 24.4962 22.4724 24.743C22.5389 24.9897 22.5654 25.2502 22.5505 25.5097C22.5356 25.7691 22.4796 26.0224 22.3856 26.255L19.7436 32.8005C19.6116 33.132 19.4076 33.4114 19.1544 33.6073C18.9013 33.8032 18.6091 33.9078 18.3106 33.9094" fill="#8D54A2"/>
<path d="M23.5857 33.8956C23.2872 33.8943 22.9948 33.7898 22.7417 33.5939C22.4885 33.3979 22.2845 33.1184 22.1527 32.7866L19.5107 26.255C19.3209 25.7852 19.2897 25.2413 19.4239 24.743C19.558 24.2446 19.8466 23.8327 20.2261 23.5978C20.6055 23.3629 21.0448 23.3242 21.4473 23.4903C21.8497 23.6564 22.1824 24.0137 22.3722 24.4835L25.0165 31.0262C25.138 31.3284 25.1952 31.664 25.1827 32.0012C25.1703 32.3384 25.0886 32.6661 24.9454 32.9534C24.8021 33.2406 24.6021 33.4779 24.3642 33.6427C24.1263 33.8076 23.8584 33.8946 23.5857 33.8956Z" fill="#8D54A2"/>
<path d="M20.9369 29.7775L19.5106 26.2566L19.4905 26.2012L19.5106 26.2511L20.9481 29.8052" fill="#CCCCCC"/>
<path d="M20.9369 29.7775L19.5106 26.2566L19.4905 26.2012L19.5106 26.2511L20.9481 29.8052" fill="#6A3E72"/>
<path d="M20.9479 29.8065L19.5104 26.258L19.4903 26.2025C19.322 25.7289 19.31 25.1927 19.4567 24.7082L19.5351 24.5142C19.6626 24.1989 19.8558 23.9314 20.0948 23.7394C20.3337 23.5474 20.6096 23.4378 20.8942 23.4219H21.0285L21.1539 23.4357C21.4088 23.4764 21.652 23.5929 21.8626 23.7754C22.0732 23.958 22.2449 24.201 22.363 24.4837L22.4413 24.6777C22.5188 24.932 22.553 25.2034 22.5419 25.4749C22.5307 25.7463 22.4744 26.012 22.3764 26.2552L20.9479 29.8065Z" fill="#CCCCCC"/>
<path d="M20.9479 29.8065L19.5104 26.258L19.4903 26.2025C19.322 25.7289 19.31 25.1927 19.4567 24.7082L19.5351 24.5142C19.6626 24.1989 19.8558 23.9314 20.0948 23.7394C20.3337 23.5474 20.6096 23.4378 20.8942 23.4219H21.0285L21.1539 23.4357C21.4088 23.4764 21.652 23.5929 21.8626 23.7754C22.0732 23.958 22.2449 24.201 22.363 24.4837L22.4413 24.6777C22.5188 24.932 22.553 25.2034 22.5419 25.4749C22.5307 25.7463 22.4744 26.012 22.3764 26.2552L20.9479 29.8065Z" fill="#6A3E72"/>
<path d="M39.725 12.6177L36.1918 13.929C36.1483 13.9446 36.1097 13.9761 36.0809 14.0194C36.0522 14.0627 36.0347 14.1158 36.0309 14.1716C36.027 14.2275 36.0369 14.2835 36.0592 14.3322C36.0815 14.381 36.1153 14.4202 36.156 14.4447L40.9632 17.4249C41.0034 17.4502 41.0488 17.4598 41.0934 17.4526C41.1381 17.4455 41.18 17.4217 41.2136 17.3846C41.2472 17.3475 41.271 17.2987 41.2819 17.2445C41.2927 17.1904 41.2901 17.1335 41.2744 17.0812L39.9982 12.7979C39.9802 12.7301 39.9417 12.6736 39.8908 12.64C39.8399 12.6064 39.7805 12.5984 39.725 12.6177Z" fill="#F58220"/>
<path d="M23.595 33.896C23.3224 33.895 23.0544 33.808 22.8165 33.6431C22.5786 33.4783 22.3786 33.241 22.2354 32.9538C22.0922 32.6665 22.0105 32.3388 21.998 32.0016C21.9856 31.6644 22.0428 31.3288 22.1642 31.0266L26.4184 20.5195C26.623 20.084 26.954 19.7614 27.3439 19.6176C27.7339 19.4737 28.1534 19.5194 28.5172 19.7452C28.8809 19.9711 29.1613 20.3602 29.3014 20.8332C29.4415 21.3062 29.4306 21.8276 29.271 22.291L25.0168 32.8009C24.8856 33.1326 24.6821 33.4123 24.4292 33.6082C24.1764 33.8042 23.8843 33.9087 23.586 33.9098" fill="#F58220"/>
<path d="M23.5903 33.8957H23.5455C23.4971 33.8999 23.4484 33.8999 23.4 33.8957C23.3571 33.8891 23.3145 33.8799 23.2723 33.868H23.2186C23.1649 33.8513 23.1111 33.8319 23.0574 33.8097C22.9982 33.7845 22.9406 33.7539 22.885 33.7183C22.5059 33.4833 22.2175 33.0717 22.0832 32.5738C21.9489 32.0759 21.9796 31.5323 22.1685 31.0624L23.5948 27.5332L25.0188 31.0624C25.2011 31.5292 25.2279 32.0661 25.0934 32.5572C24.959 33.0483 24.6741 33.4544 24.3001 33.6878C24.2445 33.7234 24.1869 33.754 24.1277 33.7793C24.0762 33.8014 24.0224 33.8208 23.9709 33.8375H23.915C23.8728 33.8494 23.8302 33.8586 23.7873 33.8652C23.7389 33.8694 23.6902 33.8694 23.6418 33.8652H23.597" fill="#CCCCCC"/>
<path d="M23.5903 33.8957H23.5455C23.4971 33.8999 23.4484 33.8999 23.4 33.8957C23.3571 33.8891 23.3145 33.8799 23.2723 33.868H23.2186C23.1649 33.8513 23.1111 33.8319 23.0574 33.8097C22.9982 33.7845 22.9406 33.7539 22.885 33.7183C22.5059 33.4833 22.2175 33.0717 22.0832 32.5738C21.9489 32.0759 21.9796 31.5323 22.1685 31.0624L23.5948 27.5332L25.0188 31.0624C25.2011 31.5292 25.2279 32.0661 25.0934 32.5572C24.959 33.0483 24.6741 33.4544 24.3001 33.6878C24.2445 33.7234 24.1869 33.754 24.1277 33.7793C24.0762 33.8014 24.0224 33.8208 23.9709 33.8375H23.915C23.8728 33.8494 23.8302 33.8586 23.7873 33.8652C23.7389 33.8694 23.6902 33.8694 23.6418 33.8652H23.597" fill="#A95B21"/>
<path d="M27.8579 25.7954L29.2708 22.2939L27.8288 25.8619" fill="#CCCCCC"/>
<path d="M27.8579 25.7954L29.2708 22.2939L27.8288 25.8619" fill="#A95B21"/>
<path d="M27.8288 25.8636L26.3868 22.2956C26.1989 21.8307 26.1667 21.2927 26.2973 20.7986L26.4092 20.5213C26.5422 20.2251 26.7342 19.9761 26.9671 19.7979C27.1999 19.6198 27.4658 19.5186 27.7392 19.5039H27.8624C28.1459 19.507 28.4237 19.6031 28.6676 19.7823C28.9114 19.9615 29.1126 20.2174 29.2506 20.5241L29.3603 20.8014C29.4906 21.2955 29.4584 21.8334 29.2707 22.2984L27.8288 25.8636Z" fill="#CCCCCC"/>
<path d="M27.8288 25.8636L26.3868 22.2956C26.1989 21.8307 26.1667 21.2927 26.2973 20.7986L26.4092 20.5213C26.5422 20.2251 26.7342 19.9761 26.9671 19.7979C27.1999 19.6198 27.4658 19.5186 27.7392 19.5039H27.8624C28.1459 19.507 28.4237 19.6031 28.6676 19.7823C28.9114 19.9615 29.1126 20.2174 29.2506 20.5241L29.3603 20.8014C29.4906 21.2955 29.4584 21.8334 29.2707 22.2984L27.8288 25.8636Z" fill="#A95B21"/>
</g>
<mask id="path-20-outside-1_9564_7574" maskUnits="userSpaceOnUse" x="39" y="18" width="53" height="17" fill="black">
<rect fill="white" x="39" y="18" width="53" height="17"/>
<path d="M44.625 33H40.5852V19.9091H44.804C46.0739 19.9091 47.1605 20.1712 48.0639 20.6953C48.9673 21.2152 49.6598 21.9631 50.1413 22.9389C50.6229 23.9105 50.8636 25.0739 50.8636 26.429C50.8636 27.7926 50.6207 28.9666 50.1349 29.951C49.6491 30.9311 48.9418 31.6854 48.0128 32.2138C47.0838 32.7379 45.9545 33 44.625 33ZM42.1705 31.5938H44.5227C45.6051 31.5938 46.5021 31.3849 47.2138 30.9673C47.9254 30.5497 48.456 29.9553 48.8054 29.1839C49.1548 28.4126 49.3295 27.4943 49.3295 26.429C49.3295 25.3722 49.157 24.4624 48.8118 23.6996C48.4666 22.9325 47.951 22.3445 47.2649 21.9354C46.5788 21.522 45.7244 21.3153 44.7017 21.3153H42.1705V31.5938ZM56.2074 33.2301C55.5852 33.2301 55.0206 33.1129 54.5135 32.8786C54.0064 32.6399 53.6037 32.2969 53.3054 31.8494C53.0071 31.3977 52.858 30.8523 52.858 30.2131C52.858 29.6506 52.9688 29.1946 53.1903 28.8452C53.4119 28.4915 53.7081 28.2145 54.0788 28.0142C54.4496 27.8139 54.8587 27.6648 55.3061 27.5668C55.7578 27.4645 56.2116 27.3835 56.6676 27.3239C57.2642 27.2472 57.7479 27.1896 58.1186 27.1513C58.4936 27.1087 58.7663 27.0384 58.9368 26.9403C59.1115 26.8423 59.1989 26.6719 59.1989 26.429V26.3778C59.1989 25.7472 59.0263 25.2571 58.6811 24.9077C58.3402 24.5582 57.8224 24.3835 57.1278 24.3835C56.4077 24.3835 55.843 24.5412 55.4339 24.8565C55.0249 25.1719 54.7372 25.5085 54.571 25.8665L53.1392 25.3551C53.3949 24.7585 53.7358 24.294 54.1619 23.9616C54.5923 23.625 55.0611 23.3906 55.5682 23.2585C56.0795 23.1222 56.5824 23.054 57.0767 23.054C57.392 23.054 57.7543 23.0923 58.1634 23.169C58.5767 23.2415 58.9751 23.3928 59.3587 23.6229C59.7464 23.853 60.0682 24.2003 60.3239 24.6648C60.5795 25.1293 60.7074 25.7514 60.7074 26.5312V33H59.1989V31.6705H59.1222C59.0199 31.8835 58.8494 32.1115 58.6108 32.3544C58.3722 32.5973 58.0547 32.804 57.6584 32.9744C57.2621 33.1449 56.7784 33.2301 56.2074 33.2301ZM56.4375 31.875C57.0341 31.875 57.5369 31.7578 57.946 31.5234C58.3594 31.2891 58.6705 30.9865 58.8793 30.6158C59.0923 30.245 59.1989 29.8551 59.1989 29.446V28.0653C59.1349 28.142 58.9943 28.2124 58.777 28.2763C58.5639 28.3359 58.3168 28.3892 58.0355 28.4361C57.7585 28.4787 57.4879 28.517 57.2237 28.5511C56.9638 28.581 56.7528 28.6065 56.5909 28.6278C56.1989 28.679 55.8324 28.7621 55.4915 28.8771C55.1548 28.9879 54.8821 29.1562 54.6733 29.3821C54.4688 29.6037 54.3665 29.9062 54.3665 30.2898C54.3665 30.8139 54.5604 31.2102 54.9482 31.4787C55.3402 31.7429 55.8366 31.875 56.4375 31.875ZM64.9693 27.0938V33H63.4608V23.1818H64.9181V24.7159H65.046C65.2761 24.2173 65.6255 23.8168 66.0943 23.5142C66.563 23.2074 67.1681 23.054 67.9096 23.054C68.5744 23.054 69.1561 23.1903 69.6547 23.4631C70.1532 23.7315 70.541 24.1406 70.818 24.6903C71.095 25.2358 71.2335 25.9261 71.2335 26.7614V33H69.725V26.8636C69.725 26.0923 69.5247 25.4915 69.1241 25.0611C68.7235 24.6264 68.1738 24.4091 67.475 24.4091C66.9934 24.4091 66.563 24.5135 66.1838 24.7223C65.8088 24.9311 65.5126 25.2358 65.2953 25.6364C65.0779 26.0369 64.9693 26.5227 64.9693 27.0938ZM73.9901 33V23.1818H75.4986V33H73.9901ZM74.7571 21.5455C74.4631 21.5455 74.2095 21.4453 73.9964 21.245C73.7876 21.0447 73.6832 20.804 73.6832 20.5227C73.6832 20.2415 73.7876 20.0007 73.9964 19.8004C74.2095 19.6001 74.4631 19.5 74.7571 19.5C75.0511 19.5 75.3026 19.6001 75.5114 19.8004C75.7244 20.0007 75.831 20.2415 75.831 20.5227C75.831 20.804 75.7244 21.0447 75.5114 21.245C75.3026 21.4453 75.0511 21.5455 74.7571 21.5455ZM82.378 33.2045C81.432 33.2045 80.6159 32.9957 79.9299 32.5781C79.248 32.1562 78.7218 31.5682 78.351 30.8139C77.9846 30.0554 77.8013 29.1733 77.8013 28.1676C77.8013 27.1619 77.9846 26.2756 78.351 25.5085C78.7218 24.7372 79.2374 24.1364 79.8979 23.706C80.5627 23.2713 81.3382 23.054 82.2246 23.054C82.736 23.054 83.2409 23.1392 83.7395 23.3097C84.2381 23.4801 84.6919 23.7571 85.101 24.1406C85.5101 24.5199 85.8361 25.0227 86.079 25.6491C86.3219 26.2756 86.4434 27.0469 86.4434 27.9631V28.6023H78.8752V27.2983H84.9093C84.9093 26.7443 84.7985 26.25 84.5769 25.8153C84.3596 25.3807 84.0485 25.0376 83.6436 24.7862C83.2431 24.5348 82.7701 24.4091 82.2246 24.4091C81.6238 24.4091 81.1039 24.5582 80.665 24.8565C80.2303 25.1506 79.8958 25.5341 79.6614 26.0071C79.427 26.4801 79.3098 26.9872 79.3098 27.5284V28.3977C79.3098 29.1392 79.4377 29.7678 79.6934 30.2834C79.9533 30.7947 80.3134 31.1847 80.7736 31.4531C81.2338 31.7173 81.7686 31.8494 82.378 31.8494C82.7743 31.8494 83.1323 31.794 83.4519 31.6832C83.7757 31.5682 84.0549 31.3977 84.2892 31.1719C84.5236 30.9418 84.7047 30.6562 84.8326 30.3153L86.29 30.7244C86.1365 31.2188 85.8787 31.6534 85.5165 32.0284C85.1543 32.3991 84.7069 32.6889 84.1742 32.8977C83.6415 33.1023 83.0428 33.2045 82.378 33.2045ZM90.2466 19.9091V33H88.7381V19.9091H90.2466Z"/>
</mask>
<path d="M44.625 33H40.5852V19.9091H44.804C46.0739 19.9091 47.1605 20.1712 48.0639 20.6953C48.9673 21.2152 49.6598 21.9631 50.1413 22.9389C50.6229 23.9105 50.8636 25.0739 50.8636 26.429C50.8636 27.7926 50.6207 28.9666 50.1349 29.951C49.6491 30.9311 48.9418 31.6854 48.0128 32.2138C47.0838 32.7379 45.9545 33 44.625 33ZM42.1705 31.5938H44.5227C45.6051 31.5938 46.5021 31.3849 47.2138 30.9673C47.9254 30.5497 48.456 29.9553 48.8054 29.1839C49.1548 28.4126 49.3295 27.4943 49.3295 26.429C49.3295 25.3722 49.157 24.4624 48.8118 23.6996C48.4666 22.9325 47.951 22.3445 47.2649 21.9354C46.5788 21.522 45.7244 21.3153 44.7017 21.3153H42.1705V31.5938ZM56.2074 33.2301C55.5852 33.2301 55.0206 33.1129 54.5135 32.8786C54.0064 32.6399 53.6037 32.2969 53.3054 31.8494C53.0071 31.3977 52.858 30.8523 52.858 30.2131C52.858 29.6506 52.9688 29.1946 53.1903 28.8452C53.4119 28.4915 53.7081 28.2145 54.0788 28.0142C54.4496 27.8139 54.8587 27.6648 55.3061 27.5668C55.7578 27.4645 56.2116 27.3835 56.6676 27.3239C57.2642 27.2472 57.7479 27.1896 58.1186 27.1513C58.4936 27.1087 58.7663 27.0384 58.9368 26.9403C59.1115 26.8423 59.1989 26.6719 59.1989 26.429V26.3778C59.1989 25.7472 59.0263 25.2571 58.6811 24.9077C58.3402 24.5582 57.8224 24.3835 57.1278 24.3835C56.4077 24.3835 55.843 24.5412 55.4339 24.8565C55.0249 25.1719 54.7372 25.5085 54.571 25.8665L53.1392 25.3551C53.3949 24.7585 53.7358 24.294 54.1619 23.9616C54.5923 23.625 55.0611 23.3906 55.5682 23.2585C56.0795 23.1222 56.5824 23.054 57.0767 23.054C57.392 23.054 57.7543 23.0923 58.1634 23.169C58.5767 23.2415 58.9751 23.3928 59.3587 23.6229C59.7464 23.853 60.0682 24.2003 60.3239 24.6648C60.5795 25.1293 60.7074 25.7514 60.7074 26.5312V33H59.1989V31.6705H59.1222C59.0199 31.8835 58.8494 32.1115 58.6108 32.3544C58.3722 32.5973 58.0547 32.804 57.6584 32.9744C57.2621 33.1449 56.7784 33.2301 56.2074 33.2301ZM56.4375 31.875C57.0341 31.875 57.5369 31.7578 57.946 31.5234C58.3594 31.2891 58.6705 30.9865 58.8793 30.6158C59.0923 30.245 59.1989 29.8551 59.1989 29.446V28.0653C59.1349 28.142 58.9943 28.2124 58.777 28.2763C58.5639 28.3359 58.3168 28.3892 58.0355 28.4361C57.7585 28.4787 57.4879 28.517 57.2237 28.5511C56.9638 28.581 56.7528 28.6065 56.5909 28.6278C56.1989 28.679 55.8324 28.7621 55.4915 28.8771C55.1548 28.9879 54.8821 29.1562 54.6733 29.3821C54.4688 29.6037 54.3665 29.9062 54.3665 30.2898C54.3665 30.8139 54.5604 31.2102 54.9482 31.4787C55.3402 31.7429 55.8366 31.875 56.4375 31.875ZM64.9693 27.0938V33H63.4608V23.1818H64.9181V24.7159H65.046C65.2761 24.2173 65.6255 23.8168 66.0943 23.5142C66.563 23.2074 67.1681 23.054 67.9096 23.054C68.5744 23.054 69.1561 23.1903 69.6547 23.4631C70.1532 23.7315 70.541 24.1406 70.818 24.6903C71.095 25.2358 71.2335 25.9261 71.2335 26.7614V33H69.725V26.8636C69.725 26.0923 69.5247 25.4915 69.1241 25.0611C68.7235 24.6264 68.1738 24.4091 67.475 24.4091C66.9934 24.4091 66.563 24.5135 66.1838 24.7223C65.8088 24.9311 65.5126 25.2358 65.2953 25.6364C65.0779 26.0369 64.9693 26.5227 64.9693 27.0938ZM73.9901 33V23.1818H75.4986V33H73.9901ZM74.7571 21.5455C74.4631 21.5455 74.2095 21.4453 73.9964 21.245C73.7876 21.0447 73.6832 20.804 73.6832 20.5227C73.6832 20.2415 73.7876 20.0007 73.9964 19.8004C74.2095 19.6001 74.4631 19.5 74.7571 19.5C75.0511 19.5 75.3026 19.6001 75.5114 19.8004C75.7244 20.0007 75.831 20.2415 75.831 20.5227C75.831 20.804 75.7244 21.0447 75.5114 21.245C75.3026 21.4453 75.0511 21.5455 74.7571 21.5455ZM82.378 33.2045C81.432 33.2045 80.6159 32.9957 79.9299 32.5781C79.248 32.1562 78.7218 31.5682 78.351 30.8139C77.9846 30.0554 77.8013 29.1733 77.8013 28.1676C77.8013 27.1619 77.9846 26.2756 78.351 25.5085C78.7218 24.7372 79.2374 24.1364 79.8979 23.706C80.5627 23.2713 81.3382 23.054 82.2246 23.054C82.736 23.054 83.2409 23.1392 83.7395 23.3097C84.2381 23.4801 84.6919 23.7571 85.101 24.1406C85.5101 24.5199 85.8361 25.0227 86.079 25.6491C86.3219 26.2756 86.4434 27.0469 86.4434 27.9631V28.6023H78.8752V27.2983H84.9093C84.9093 26.7443 84.7985 26.25 84.5769 25.8153C84.3596 25.3807 84.0485 25.0376 83.6436 24.7862C83.2431 24.5348 82.7701 24.4091 82.2246 24.4091C81.6238 24.4091 81.1039 24.5582 80.665 24.8565C80.2303 25.1506 79.8958 25.5341 79.6614 26.0071C79.427 26.4801 79.3098 26.9872 79.3098 27.5284V28.3977C79.3098 29.1392 79.4377 29.7678 79.6934 30.2834C79.9533 30.7947 80.3134 31.1847 80.7736 31.4531C81.2338 31.7173 81.7686 31.8494 82.378 31.8494C82.7743 31.8494 83.1323 31.794 83.4519 31.6832C83.7757 31.5682 84.0549 31.3977 84.2892 31.1719C84.5236 30.9418 84.7047 30.6562 84.8326 30.3153L86.29 30.7244C86.1365 31.2188 85.8787 31.6534 85.5165 32.0284C85.1543 32.3991 84.7069 32.6889 84.1742 32.8977C83.6415 33.1023 83.0428 33.2045 82.378 33.2045ZM90.2466 19.9091V33H88.7381V19.9091H90.2466Z" fill="#D98135"/>
<path d="M40.5852 33H39.5852V34H40.5852V33ZM40.5852 19.9091V18.9091H39.5852V19.9091H40.5852ZM48.0639 20.6953L47.5621 21.5603L47.5651 21.562L48.0639 20.6953ZM50.1413 22.9389L49.2446 23.3814L49.2453 23.383L50.1413 22.9389ZM50.1349 29.951L51.0309 30.3951L51.0317 30.3935L50.1349 29.951ZM48.0128 32.2138L48.5042 33.0847L48.5072 33.083L48.0128 32.2138ZM42.1705 31.5938H41.1705V32.5938H42.1705V31.5938ZM48.8118 23.6996L47.8999 24.1099L47.9007 24.1118L48.8118 23.6996ZM47.2649 21.9354L46.7488 22.7919L46.7528 22.7943L47.2649 21.9354ZM42.1705 21.3153V20.3153H41.1705V21.3153H42.1705ZM44.625 32H40.5852V34H44.625V32ZM41.5852 33V19.9091H39.5852V33H41.5852ZM40.5852 20.9091H44.804V18.9091H40.5852V20.9091ZM44.804 20.9091C45.9355 20.9091 46.8409 21.1419 47.5621 21.5603L48.5658 19.8304C47.4801 19.2005 46.2122 18.9091 44.804 18.9091V20.9091ZM47.5651 21.562C48.289 21.9786 48.8467 22.575 49.2446 23.3814L51.0381 22.4964C50.4729 21.3511 49.6457 20.4518 48.5627 19.8286L47.5651 21.562ZM49.2453 23.383C49.6435 24.1864 49.8636 25.1904 49.8636 26.429H51.8636C51.8636 24.9574 51.6022 23.6346 51.0373 22.4949L49.2453 23.383ZM49.8636 26.429C49.8636 27.6755 49.6416 28.691 49.2382 29.5084L51.0317 30.3935C51.5999 29.2423 51.8636 27.9097 51.8636 26.429H49.8636ZM49.239 29.5069C48.8395 30.3129 48.2698 30.9171 47.5184 31.3446L48.5072 33.083C49.6137 32.4536 50.4588 31.5493 51.0309 30.3951L49.239 29.5069ZM47.5214 31.3428C46.7751 31.7639 45.8243 32 44.625 32V34C46.0848 34 47.3926 33.7119 48.5042 33.0847L47.5214 31.3428ZM42.1705 32.5938H44.5227V30.5938H42.1705V32.5938ZM44.5227 32.5938C45.729 32.5938 46.8141 32.3613 47.7199 31.8298L46.7077 30.1049C46.1902 30.4085 45.4812 30.5938 44.5227 30.5938V32.5938ZM47.7199 31.8298C48.6146 31.3048 49.284 30.5508 49.7163 29.5966L47.8945 28.7713C47.6279 29.3597 47.2362 29.7947 46.7077 30.1049L47.7199 31.8298ZM49.7163 29.5966C50.1375 28.6668 50.3295 27.6011 50.3295 26.429H48.3295C48.3295 27.3876 48.1721 28.1585 47.8945 28.7713L49.7163 29.5966ZM50.3295 26.429C50.3295 25.2661 50.1399 24.2089 49.7229 23.2873L47.9007 24.1118C48.174 24.7158 48.3295 25.4783 48.3295 26.429H50.3295ZM49.7237 23.2892C49.2991 22.3457 48.6489 21.5963 47.7771 21.0765L46.7528 22.7943C47.2531 23.0926 47.6341 23.5193 47.8999 24.1099L49.7237 23.2892ZM47.781 21.0788C46.9015 20.549 45.8567 20.3153 44.7017 20.3153V22.3153C45.5922 22.3153 46.2562 22.4951 46.7489 22.7919L47.781 21.0788ZM44.7017 20.3153H42.1705V22.3153H44.7017V20.3153ZM41.1705 21.3153V31.5938H43.1705V21.3153H41.1705ZM54.5135 32.8786L54.0877 33.7834L54.094 33.7863L54.5135 32.8786ZM53.3054 31.8494L52.4709 32.4005L52.4733 32.4041L53.3054 31.8494ZM53.1903 28.8452L54.0349 29.3807L54.0378 29.3761L53.1903 28.8452ZM55.3061 27.5668L55.5201 28.5436L55.5269 28.5421L55.3061 27.5668ZM56.6676 27.3239L56.5401 26.332L56.5379 26.3323L56.6676 27.3239ZM58.1186 27.1513L58.2215 28.146L58.2315 28.1449L58.1186 27.1513ZM58.9368 26.9403L58.4475 26.0681L58.4383 26.0734L58.9368 26.9403ZM58.6811 24.9077L57.9653 25.606L57.9697 25.6104L58.6811 24.9077ZM55.4339 24.8565L56.0445 25.6485L56.0445 25.6485L55.4339 24.8565ZM54.571 25.8665L54.2347 26.8082L55.0938 27.1151L55.478 26.2876L54.571 25.8665ZM53.1392 25.3551L52.2201 24.9612L51.801 25.939L52.8029 26.2969L53.1392 25.3551ZM54.1619 23.9616L54.777 24.7502L54.778 24.7493L54.1619 23.9616ZM55.5682 23.2585L55.8203 24.2262L55.8258 24.2248L55.5682 23.2585ZM58.1634 23.169L57.9791 24.152L57.9907 24.154L58.1634 23.169ZM59.3587 23.6229L58.8442 24.4804L58.8483 24.4829L59.3587 23.6229ZM60.3239 24.6648L59.4478 25.147L59.4478 25.147L60.3239 24.6648ZM60.7074 33V34H61.7074V33H60.7074ZM59.1989 33H58.1989V34H59.1989V33ZM59.1989 31.6705H60.1989V30.6705H59.1989V31.6705ZM59.1222 31.6705V30.6705H58.4929L58.2206 31.2377L59.1222 31.6705ZM58.6108 32.3544L59.3241 33.0552L59.3241 33.0552L58.6108 32.3544ZM57.6584 32.9744L57.2633 32.0558L57.6584 32.9744ZM57.946 31.5234L57.4528 30.6535L57.4489 30.6558L57.946 31.5234ZM58.8793 30.6158L58.0122 30.1175L58.008 30.125L58.8793 30.6158ZM59.1989 28.0653H60.1989V25.3033L58.4306 27.4252L59.1989 28.0653ZM58.777 28.2763L59.0466 29.2393L59.0592 29.2356L58.777 28.2763ZM58.0355 28.4361L58.1876 29.4245L58.1999 29.4225L58.0355 28.4361ZM57.2237 28.5511L57.3377 29.5447L57.3517 29.5429L57.2237 28.5511ZM56.5909 28.6278L56.7202 29.6194L56.7214 29.6193L56.5909 28.6278ZM55.4915 28.8771L55.8041 29.827L55.8113 29.8246L55.4915 28.8771ZM54.6733 29.3821L53.939 28.7032L53.9385 28.7038L54.6733 29.3821ZM54.9482 31.4787L54.3789 32.3009L54.3893 32.308L54.9482 31.4787ZM56.2074 32.2301C55.7135 32.2301 55.2944 32.1378 54.933 31.9708L54.094 33.7863C54.7468 34.088 55.4569 34.2301 56.2074 34.2301V32.2301ZM54.9393 31.9737C54.5897 31.8092 54.3304 31.5841 54.1374 31.2947L52.4733 32.4041C52.877 33.0096 53.4231 33.4706 54.0877 33.7834L54.9393 31.9737ZM54.1399 31.2984C53.9679 31.0379 53.858 30.6924 53.858 30.2131H51.858C51.858 31.0121 52.0464 31.7576 52.4709 32.4005L54.1399 31.2984ZM53.858 30.2131C53.858 29.7742 53.9452 29.5221 54.0348 29.3807L52.3458 28.3096C51.9923 28.8671 51.858 29.5269 51.858 30.2131H53.858ZM54.0378 29.3761C54.1666 29.1704 54.334 29.013 54.5541 28.894L53.6035 27.1344C53.0822 27.416 52.6572 27.8126 52.3429 28.3143L54.0378 29.3761ZM54.5541 28.894C54.8359 28.7418 55.156 28.6234 55.5201 28.5436L55.0921 26.5899C54.5614 26.7062 54.0632 26.886 53.6035 27.1344L54.5541 28.894ZM55.5269 28.5421C55.9488 28.4466 56.3722 28.371 56.7973 28.3154L56.5379 26.3323C56.0511 26.396 55.5669 26.4824 55.0853 26.5914L55.5269 28.5421ZM56.7951 28.3157C57.3878 28.2395 57.8624 28.1831 58.2215 28.146L58.0157 26.1566C57.6333 26.1961 57.1406 26.2548 56.5401 26.332L56.7951 28.3157ZM58.2315 28.1449C58.6404 28.0984 59.0815 28.0107 59.4353 27.8072L58.4383 26.0734C58.4567 26.0629 58.4382 26.0767 58.3548 26.0982C58.2755 26.1187 58.1615 26.14 58.0057 26.1577L58.2315 28.1449ZM59.426 27.8125C59.9882 27.4971 60.1989 26.9426 60.1989 26.429H58.1989C58.1989 26.4332 58.198 26.3716 58.2434 26.2829C58.2937 26.1848 58.3716 26.1108 58.4475 26.0682L59.426 27.8125ZM60.1989 26.429V26.3778H58.1989V26.429H60.1989ZM60.1989 26.3778C60.1989 25.5621 59.971 24.7906 59.3925 24.2049L57.9697 25.6104C58.0815 25.7236 58.1989 25.9322 58.1989 26.3778H60.1989ZM59.3969 24.2093C58.8001 23.5977 57.9766 23.3835 57.1278 23.3835V25.3835C57.6683 25.3835 57.8803 25.5188 57.9653 25.606L59.3969 24.2093ZM57.1278 23.3835C56.2722 23.3835 55.4648 23.5701 54.8234 24.0645L56.0445 25.6485C56.2213 25.5123 56.5432 25.3835 57.1278 25.3835V23.3835ZM54.8234 24.0645C54.3251 24.4487 53.9155 24.9038 53.664 25.4454L55.478 26.2876C55.559 26.1132 55.7247 25.8951 56.0445 25.6485L54.8234 24.0645ZM54.9074 24.9247L53.4755 24.4134L52.8029 26.2969L54.2347 26.8082L54.9074 24.9247ZM54.0583 25.749C54.2609 25.2764 54.5082 24.9598 54.777 24.7502L53.5469 23.1731C52.9634 23.6283 52.5289 24.2406 52.2201 24.9612L54.0583 25.749ZM54.778 24.7493C55.1054 24.4933 55.4512 24.3224 55.8203 24.2262L55.3161 22.2908C54.671 22.4589 54.0793 22.7567 53.5458 23.174L54.778 24.7493ZM55.8258 24.2248C56.2591 24.1092 56.6753 24.054 57.0767 24.054V22.054C56.4895 22.054 55.9 22.1351 55.3105 22.2923L55.8258 24.2248ZM57.0767 24.054C57.3142 24.054 57.6127 24.0832 57.9791 24.1519L58.3476 22.1862C57.8958 22.1014 57.4698 22.054 57.0767 22.054V24.054ZM57.9907 24.154C58.2755 24.2039 58.5588 24.3092 58.8442 24.4804L59.8732 22.7654C59.3914 22.4763 58.8779 22.279 58.336 22.184L57.9907 24.154ZM58.8483 24.4829C59.0576 24.607 59.2629 24.8111 59.4478 25.147L61.1999 24.1825C60.8735 23.5895 60.4353 23.0989 59.869 22.7629L58.8483 24.4829ZM59.4478 25.147C59.5928 25.4104 59.7074 25.8463 59.7074 26.5312H61.7074C61.7074 25.6566 61.5663 24.8481 61.1999 24.1825L59.4478 25.147ZM59.7074 26.5312V33H61.7074V26.5312H59.7074ZM60.7074 32H59.1989V34H60.7074V32ZM60.1989 33V31.6705H58.1989V33H60.1989ZM59.1989 30.6705H59.1222V32.6705H59.1989V30.6705ZM58.2206 31.2377C58.1819 31.3185 58.09 31.4576 57.8975 31.6536L59.3241 33.0552C59.6089 32.7654 59.8579 32.4486 60.0237 32.1032L58.2206 31.2377ZM57.8975 31.6536C57.7705 31.7828 57.571 31.9235 57.2633 32.0558L58.0535 33.8931C58.5384 33.6845 58.9738 33.4118 59.3241 33.0552L57.8975 31.6536ZM57.2633 32.0558C57.0251 32.1582 56.6843 32.2301 56.2074 32.2301V34.2301C56.8725 34.2301 57.499 34.1315 58.0535 33.8931L57.2633 32.0558ZM56.4375 32.875C57.163 32.875 57.8476 32.7323 58.4431 32.3911L57.4489 30.6558C57.2263 30.7833 56.9052 30.875 56.4375 30.875V32.875ZM58.4393 32.3933C58.9918 32.08 59.4424 31.6536 59.7506 31.1065L58.008 30.125C57.8985 30.3194 57.7269 30.4981 57.4528 30.6535L58.4393 32.3933ZM59.7463 31.1141C60.0424 30.5988 60.1989 30.038 60.1989 29.446H58.1989C58.1989 29.6722 58.1423 29.8912 58.0122 30.1175L59.7463 31.1141ZM60.1989 29.446V28.0653H58.1989V29.446H60.1989ZM58.4306 27.4252C58.4806 27.3652 58.5269 27.3283 58.5529 27.3097C58.5796 27.2905 58.5969 27.2818 58.5982 27.2812C58.6002 27.2802 58.5932 27.2838 58.5745 27.2908C58.5561 27.2977 58.53 27.3066 58.4948 27.3169L59.0592 29.2356C59.2021 29.1936 59.3519 29.1404 59.4927 29.07C59.6232 29.0048 59.8107 28.8932 59.9671 28.7055L58.4306 27.4252ZM58.5074 27.3133C58.3371 27.361 58.1264 27.4071 57.8711 27.4497L58.1999 29.4225C58.5071 29.3713 58.7907 29.3109 59.0466 29.2392L58.5074 27.3133ZM57.8835 27.4477C57.6141 27.4892 57.3515 27.5264 57.0958 27.5594L57.3517 29.5429C57.6243 29.5077 57.903 29.4682 58.1876 29.4245L57.8835 27.4477ZM57.1097 27.5577C56.8471 27.5878 56.6301 27.6141 56.4605 27.6364L56.7214 29.6193C56.8756 29.599 57.0804 29.5741 57.3377 29.5446L57.1097 27.5577ZM56.4616 27.6362C56.011 27.695 55.5802 27.7918 55.1717 27.9296L55.8113 29.8246C56.0845 29.7324 56.3867 29.6629 56.7202 29.6194L56.4616 27.6362ZM55.1789 27.9273C54.7057 28.083 54.2796 28.3349 53.939 28.7032L55.4076 30.061C55.4846 29.9776 55.6039 29.8929 55.8041 29.827L55.1789 27.9273ZM53.9385 28.7038C53.5208 29.1563 53.3665 29.7257 53.3665 30.2898H55.3665C55.3665 30.1857 55.3805 30.1252 55.3905 30.0954C55.3994 30.0691 55.4066 30.062 55.4081 30.0604L53.9385 28.7038ZM53.3665 30.2898C53.3665 31.0994 53.6881 31.8226 54.3789 32.3009L55.5174 30.6565C55.4327 30.5979 55.3665 30.5284 55.3665 30.2898H53.3665ZM54.3893 32.308C54.9861 32.7101 55.6913 32.875 56.4375 32.875V30.875C55.982 30.875 55.6943 30.7757 55.507 30.6494L54.3893 32.308ZM64.9693 33V34H65.9693V33H64.9693ZM63.4608 33H62.4608V34H63.4608V33ZM63.4608 23.1818V22.1818H62.4608V23.1818H63.4608ZM64.9181 23.1818H65.9181V22.1818H64.9181V23.1818ZM64.9181 24.7159H63.9181V25.7159H64.9181V24.7159ZM65.046 24.7159V25.7159H65.6858L65.9539 25.135L65.046 24.7159ZM66.0943 23.5142L66.6366 24.3544L66.6419 24.3509L66.0943 23.5142ZM69.6547 23.4631L69.1747 24.3404L69.1806 24.3435L69.6547 23.4631ZM70.818 24.6903L69.925 25.1403L69.9264 25.1431L70.818 24.6903ZM71.2335 33V34H72.2335V33H71.2335ZM69.725 33H68.725V34H69.725V33ZM69.1241 25.0611L68.3887 25.7388L68.3921 25.7424L69.1241 25.0611ZM66.1838 24.7223L65.7015 23.8463L65.6973 23.8486L66.1838 24.7223ZM65.2953 25.6364L64.4163 25.1595L64.4163 25.1595L65.2953 25.6364ZM63.9693 27.0938V33H65.9693V27.0938H63.9693ZM64.9693 32H63.4608V34H64.9693V32ZM64.4608 33V23.1818H62.4608V33H64.4608ZM63.4608 24.1818H64.9181V22.1818H63.4608V24.1818ZM63.9181 23.1818V24.7159H65.9181V23.1818H63.9181ZM64.9181 25.7159H65.046V23.7159H64.9181V25.7159ZM65.9539 25.135C66.1032 24.8115 66.3245 24.5558 66.6366 24.3544L65.552 22.674C64.9266 23.0777 64.449 23.6232 64.138 24.2969L65.9539 25.135ZM66.6419 24.3509C66.903 24.18 67.301 24.054 67.9096 24.054V22.054C67.0353 22.054 66.2231 22.2347 65.5466 22.6775L66.6419 24.3509ZM67.9096 24.054C68.4353 24.054 68.8465 24.1608 69.1748 24.3404L70.1346 22.5857C69.4656 22.2198 68.7135 22.054 67.9096 22.054V24.054ZM69.1806 24.3435C69.4828 24.5063 69.7318 24.7569 69.925 25.1403L71.711 24.2404C71.3503 23.5243 70.8236 22.9568 70.1288 22.5826L69.1806 24.3435ZM69.9264 25.1431C70.111 25.5066 70.2335 26.0289 70.2335 26.7614H72.2335C72.2335 25.8233 72.079 24.965 71.7096 24.2376L69.9264 25.1431ZM70.2335 26.7614V33H72.2335V26.7614H70.2335ZM71.2335 32H69.725V34H71.2335V32ZM70.725 33V26.8636H68.725V33H70.725ZM70.725 26.8636C70.725 25.9206 70.4772 25.0471 69.8561 24.3798L68.3921 25.7424C68.5722 25.9359 68.725 26.2641 68.725 26.8636H70.725ZM69.8595 24.3834C69.235 23.7058 68.3977 23.4091 67.475 23.4091V25.4091C67.9499 25.4091 68.2121 25.5471 68.3888 25.7388L69.8595 24.3834ZM67.475 23.4091C66.8441 23.4091 66.2445 23.5473 65.7015 23.8463L66.6661 25.5983C66.8816 25.4797 67.1428 25.4091 67.475 25.4091V23.4091ZM65.6973 23.8486C65.146 24.1556 64.7183 24.6029 64.4163 25.1595L66.1742 26.1132C66.3069 25.8687 66.4715 25.7067 66.6703 25.596L65.6973 23.8486ZM64.4163 25.1595C64.1019 25.739 63.9693 26.3976 63.9693 27.0938H65.9693C65.9693 26.6479 66.054 26.3349 66.1742 26.1132L64.4163 25.1595ZM73.9901 33H72.9901V34H73.9901V33ZM73.9901 23.1818V22.1818H72.9901V23.1818H73.9901ZM75.4986 23.1818H76.4986V22.1818H75.4986V23.1818ZM75.4986 33V34H76.4986V33H75.4986ZM73.9964 21.245L73.3042 21.9667L73.3115 21.9737L73.9964 21.245ZM73.9964 19.8004L73.3115 19.0718L73.3042 19.0787L73.9964 19.8004ZM75.5114 19.8004L74.8191 20.5221L74.8265 20.5291L75.5114 19.8004ZM75.5114 21.245L74.8264 20.5164L74.8191 20.5233L75.5114 21.245ZM74.9901 33V23.1818H72.9901V33H74.9901ZM73.9901 24.1818H75.4986V22.1818H73.9901V24.1818ZM74.4986 23.1818V33H76.4986V23.1818H74.4986ZM75.4986 32H73.9901V34H75.4986V32ZM74.7571 20.5455C74.7259 20.5455 74.7147 20.5406 74.7138 20.5403C74.713 20.5399 74.7025 20.5363 74.6814 20.5164L73.3115 21.9737C73.7112 22.3493 74.2101 22.5455 74.7571 22.5455V20.5455ZM74.6887 20.5233C74.6788 20.5138 74.675 20.5086 74.6747 20.5082C74.6746 20.508 74.6766 20.5109 74.679 20.5164C74.6814 20.522 74.6828 20.5269 74.6834 20.53C74.684 20.5328 74.6832 20.5309 74.6832 20.5227H72.6832C72.6832 21.0851 72.9052 21.5839 73.3042 21.9667L74.6887 20.5233ZM74.6832 20.5227C74.6832 20.5146 74.684 20.5126 74.6834 20.5155C74.6828 20.5185 74.6814 20.5235 74.679 20.529C74.6766 20.5346 74.6746 20.5374 74.6747 20.5372C74.675 20.5369 74.6788 20.5316 74.6887 20.5221L73.3042 19.0787C72.9052 19.4615 72.6832 19.9603 72.6832 20.5227H74.6832ZM74.6814 20.5291C74.7025 20.5092 74.713 20.5055 74.7138 20.5052C74.7147 20.5048 74.7259 20.5 74.7571 20.5V18.5C74.2101 18.5 73.7112 18.6961 73.3115 19.0718L74.6814 20.5291ZM74.7571 20.5C74.7737 20.5 74.7839 20.5014 74.7891 20.5023C74.794 20.5033 74.796 20.5041 74.7962 20.5041C74.7963 20.5042 74.7974 20.5046 74.8001 20.5064C74.803 20.5082 74.8094 20.5128 74.8191 20.5221L76.2036 19.0787C75.8052 18.6967 75.3045 18.5 74.7571 18.5V20.5ZM74.8265 20.5291C74.8371 20.539 74.8411 20.5446 74.8414 20.545C74.8416 20.5452 74.8393 20.5421 74.8366 20.5359C74.8338 20.5296 74.8321 20.5236 74.8312 20.5193C74.8303 20.5152 74.831 20.5159 74.831 20.5227H76.831C76.831 19.9534 76.6014 19.4526 76.1963 19.0718L74.8265 20.5291ZM74.831 20.5227C74.831 20.5296 74.8303 20.5302 74.8312 20.5261C74.8321 20.5218 74.8338 20.5159 74.8366 20.5096C74.8393 20.5034 74.8416 20.5002 74.8414 20.5004C74.8411 20.5009 74.8371 20.5064 74.8265 20.5164L76.1963 21.9737C76.6014 21.5928 76.831 21.092 76.831 20.5227H74.831ZM74.8191 20.5233C74.8094 20.5327 74.803 20.5372 74.8001 20.5391C74.7974 20.5409 74.7963 20.5413 74.7962 20.5413C74.796 20.5414 74.794 20.5422 74.7891 20.5431C74.7839 20.5441 74.7737 20.5455 74.7571 20.5455V22.5455C75.3045 22.5455 75.8052 22.3488 76.2036 21.9667L74.8191 20.5233ZM79.9299 32.5781L79.4037 33.4285L79.4099 33.4323L79.9299 32.5781ZM78.351 30.8139L77.4506 31.249L77.4536 31.255L78.351 30.8139ZM78.351 25.5085L77.4497 25.0753L77.4487 25.0774L78.351 25.5085ZM79.8979 23.706L80.4438 24.5438L80.4452 24.5429L79.8979 23.706ZM83.7395 23.3097L84.063 22.3634L84.063 22.3634L83.7395 23.3097ZM85.101 24.1406L84.4171 24.8702L84.4212 24.874L85.101 24.1406ZM86.079 25.6491L87.0114 25.2876L87.0114 25.2876L86.079 25.6491ZM86.4434 28.6023V29.6023H87.4434V28.6023H86.4434ZM78.8752 28.6023H77.8752V29.6023H78.8752V28.6023ZM78.8752 27.2983V26.2983H77.8752V27.2983H78.8752ZM84.9093 27.2983V28.2983H85.9093V27.2983H84.9093ZM84.5769 25.8153L83.6824 26.2626L83.686 26.2695L84.5769 25.8153ZM83.6436 24.7862L83.112 25.6332L83.1161 25.6357L83.6436 24.7862ZM80.665 24.8565L81.2253 25.6848L81.227 25.6836L80.665 24.8565ZM79.6614 26.0071L78.7654 25.5631L78.7654 25.5631L79.6614 26.0071ZM79.6934 30.2834L78.7974 30.7277L78.8019 30.7365L79.6934 30.2834ZM80.7736 31.4531L80.2697 32.3169L80.2757 32.3204L80.7736 31.4531ZM83.4519 31.6832L83.7794 32.6281L83.7866 32.6255L83.4519 31.6832ZM84.2892 31.1719L84.9832 31.892L84.9898 31.8854L84.2892 31.1719ZM84.8326 30.3153L85.1028 29.3526L84.2187 29.1044L83.8962 29.9642L84.8326 30.3153ZM86.29 30.7244L87.245 31.0208L87.5496 30.0394L86.5602 29.7616L86.29 30.7244ZM85.5165 32.0284L86.2318 32.7273L86.2358 32.7231L85.5165 32.0284ZM84.1742 32.8977L84.5327 33.8313L84.5391 33.8288L84.1742 32.8977ZM82.378 32.2045C81.5824 32.2045 80.9533 32.0304 80.4498 31.7239L79.4099 33.4323C80.2786 33.9611 81.2816 34.2045 82.378 34.2045V32.2045ZM80.456 31.7277C79.9419 31.4096 79.5405 30.967 79.2485 30.3728L77.4536 31.255C77.903 32.1694 78.5542 32.9029 79.4037 33.4285L80.456 31.7277ZM79.2514 30.3789C78.962 29.7798 78.8013 29.0515 78.8013 28.1676H76.8013C76.8013 29.2951 77.0071 30.331 77.4506 31.249L79.2514 30.3789ZM78.8013 28.1676C78.8013 27.2841 78.9619 26.5496 79.2533 25.9396L77.4487 25.0774C77.0072 26.0015 76.8013 27.0398 76.8013 28.1676H78.8013ZM79.2523 25.9417C79.5508 25.3207 79.9496 24.8659 80.4438 24.5438L79.352 22.8681C78.5252 23.4069 77.8927 24.1538 77.4497 25.0753L79.2523 25.9417ZM80.4452 24.5429C80.9287 24.2267 81.5093 24.054 82.2246 24.054V22.054C81.1672 22.054 80.1966 22.3159 79.3507 22.869L80.4452 24.5429ZM82.2246 24.054C82.6226 24.054 83.0184 24.1199 83.416 24.2559L84.063 22.3634C83.4635 22.1585 82.8494 22.054 82.2246 22.054V24.054ZM83.416 24.2559C83.772 24.3776 84.1047 24.5773 84.4171 24.8702L85.785 23.4111C85.2792 22.9369 84.7043 22.5827 84.063 22.3634L83.416 24.2559ZM84.4212 24.874C84.6985 25.1311 84.9476 25.4972 85.1467 26.0107L87.0114 25.2876C86.7247 24.5482 86.3217 23.9087 85.7809 23.4073L84.4212 24.874ZM85.1467 26.0107C85.3318 26.4882 85.4434 27.1285 85.4434 27.9631H87.4434C87.4434 26.9653 87.312 26.0629 87.0114 25.2876L85.1467 26.0107ZM85.4434 27.9631V28.6023H87.4434V27.9631H85.4434ZM86.4434 27.6023H78.8752V29.6023H86.4434V27.6023ZM79.8752 28.6023V27.2983H77.8752V28.6023H79.8752ZM78.8752 28.2983H84.9093V26.2983H78.8752V28.2983ZM85.9093 27.2983C85.9093 26.608 85.7703 25.9545 85.4678 25.3612L83.686 26.2695C83.8267 26.5455 83.9093 26.8806 83.9093 27.2983H85.9093ZM85.4713 25.3681C85.173 24.7715 84.7364 24.2877 84.1712 23.9367L83.1161 25.6357C83.3605 25.7875 83.5461 25.9899 83.6825 26.2626L85.4713 25.3681ZM84.1753 23.9392C83.5922 23.5733 82.9287 23.4091 82.2246 23.4091V25.4091C82.6114 25.4091 82.894 25.4963 83.112 25.6332L84.1753 23.9392ZM82.2246 23.4091C81.4507 23.4091 80.7289 23.604 80.1029 24.0295L81.227 25.6836C81.4788 25.5125 81.7968 25.4091 82.2246 25.4091V23.4091ZM80.1046 24.0283C79.5258 24.4198 79.076 24.9361 78.7654 25.5631L80.5574 26.4511C80.7155 26.1321 80.9348 25.8813 81.2253 25.6848L80.1046 24.0283ZM78.7654 25.5631C78.4608 26.1777 78.3098 26.8372 78.3098 27.5284H80.3098C80.3098 27.1372 80.3932 26.7825 80.5574 26.4511L78.7654 25.5631ZM78.3098 27.5284V28.3977H80.3098V27.5284H78.3098ZM78.3098 28.3977C78.3098 29.2504 78.4565 30.04 78.7975 30.7276L80.5893 29.8391C80.4189 29.4955 80.3098 29.028 80.3098 28.3977H78.3098ZM78.8019 30.7365C79.142 31.4055 79.6308 31.9442 80.2697 32.3169L81.2775 30.5893C80.996 30.4252 80.7646 30.184 80.5848 29.8302L78.8019 30.7365ZM80.2757 32.3204C80.9088 32.6838 81.6202 32.8494 82.378 32.8494V30.8494C81.9171 30.8494 81.5589 30.7509 81.2715 30.5859L80.2757 32.3204ZM82.378 32.8494C82.8671 32.8494 83.3382 32.781 83.7794 32.6281L83.1243 30.7384C82.9264 30.807 82.6815 30.8494 82.378 30.8494V32.8494ZM83.7866 32.6255C84.237 32.4655 84.6405 32.2221 84.9831 31.892L83.5953 30.4518C83.4692 30.5734 83.3145 30.6708 83.1171 30.7409L83.7866 32.6255ZM84.9898 31.8854C85.3391 31.5425 85.5954 31.129 85.7689 30.6665L83.8962 29.9642C83.814 30.1835 83.7081 30.341 83.5887 30.4583L84.9898 31.8854ZM84.5623 31.2781L86.0197 31.6872L86.5602 29.7616L85.1028 29.3526L84.5623 31.2781ZM85.3349 30.428C85.2282 30.7718 85.0516 31.0703 84.7973 31.3337L86.2358 32.7231C86.7058 32.2365 87.0449 31.6657 87.245 31.0208L85.3349 30.428ZM84.8012 31.3296C84.5479 31.5889 84.2238 31.8042 83.8092 31.9667L84.5391 33.8288C85.1899 33.5736 85.7607 33.2094 86.2318 32.7272L84.8012 31.3296ZM83.8157 31.9642C83.4147 32.1182 82.9401 32.2045 82.378 32.2045V34.2045C83.1455 34.2045 83.8684 34.0864 84.5327 33.8313L83.8157 31.9642ZM90.2466 19.9091H91.2466V18.9091H90.2466V19.9091ZM90.2466 33V34H91.2466V33H90.2466ZM88.7381 33H87.7381V34H88.7381V33ZM88.7381 19.9091V18.9091H87.7381V19.9091H88.7381ZM89.2466 19.9091V33H91.2466V19.9091H89.2466ZM90.2466 32H88.7381V34H90.2466V32ZM89.7381 33V19.9091H87.7381V33H89.7381ZM88.7381 20.9091H90.2466V18.9091H88.7381V20.9091Z" fill="white" mask="url(#path-20-outside-1_9564_7574)"/>
<defs>
<filter id="filter0_d_9564_7574" x="0" y="0" width="58" height="58" filterUnits="userSpaceOnUse" color-interpolation-filters="sRGB">
<feFlood flood-opacity="0" result="BackgroundImageFix"/>
<feColorMatrix in="SourceAlpha" type="matrix" values="0 0 0 0 0 0 0 0 0 0 0 0 0 0 0 0 0 0 127 0" result="hardAlpha"/>
<feOffset dy="4"/>
<feGaussianBlur stdDeviation="2"/>
<feComposite in2="hardAlpha" operator="out"/>
<feColorMatrix type="matrix" values="0 0 0 0 0 0 0 0 0 0 0 0 0 0 0 0 0 0 0.25 0"/>
<feBlend mode="normal" in2="BackgroundImageFix" result="effect1_dropShadow_9564_7574"/>
<feBlend mode="normal" in="SourceGraphic" in2="effect1_dropShadow_9564_7574" result="shape"/>
</filter>
</defs>
</svg>
