<svg width="116" height="58" viewBox="0 0 116 58" fill="none" xmlns="http://www.w3.org/2000/svg">
<g filter="url(#filter0_d_9564_7573)">
<circle cx="29" cy="25" r="25" fill="black"/>
<path d="M39.1202 16.4041L32.6595 32.7179C32.5678 32.9495 32.441 33.156 32.2865 33.3254C32.132 33.4948 31.9527 33.6239 31.7589 33.7053C31.5652 33.7867 31.3607 33.8188 31.1571 33.7998C30.9536 33.7807 30.755 33.7109 30.5727 33.5944C30.3904 33.4778 30.2279 33.3168 30.0946 33.1204C29.9612 32.9241 29.8596 32.6963 29.7956 32.4501C29.7315 32.2038 29.7063 31.944 29.7212 31.6854C29.7362 31.4267 29.7911 31.1744 29.8829 30.9427L36.3414 14.6289L39.1202 16.4041Z" fill="#F58220"/>
<path d="M31.2731 33.8076C30.983 33.806 30.699 33.7016 30.453 33.5063C30.2069 33.3109 30.0087 33.0322 29.8804 32.7016L25.7568 22.2331C25.5816 21.7656 25.5578 21.2293 25.6905 20.7397C25.8231 20.2501 26.1017 19.8461 26.4662 19.6147C26.8308 19.3833 27.2522 19.3428 27.64 19.502C28.0278 19.6613 28.3509 20.0075 28.54 20.4662L32.6745 30.9458C32.7925 31.2472 32.8481 31.5819 32.836 31.9182C32.8239 32.2545 32.7445 32.5814 32.6053 32.8679C32.4661 33.1544 32.2717 33.391 32.0405 33.5554C31.8093 33.7199 31.5489 33.8067 31.284 33.8076" fill="#F58220"/>
<path d="M31.2708 33.8051C31.2038 33.8051 31.137 33.7995 31.0706 33.7885H31.0292C30.977 33.7885 30.9248 33.7636 30.8747 33.747L30.8225 33.7277C30.7746 33.7083 30.7289 33.6889 30.6832 33.6641L30.6267 33.6336C30.5771 33.6068 30.5291 33.5753 30.483 33.5396L30.4591 33.523C30.3428 33.4307 30.2361 33.3202 30.1414 33.194L30.1284 33.1747C30.0301 33.0409 29.9474 32.89 29.8825 32.7267C29.7731 32.4515 29.7161 32.1475 29.7161 31.8391C29.7161 31.5308 29.7731 31.2268 29.8825 30.9516L31.2751 27.4316L32.6613 30.9571C32.7648 31.2307 32.8173 31.5309 32.8147 31.8345C32.812 32.138 32.7543 32.4367 32.646 32.7074C32.5806 32.8687 32.4986 33.0184 32.4023 33.1525L32.3871 33.1719C32.341 33.2351 32.2916 33.2942 32.2391 33.3488C32.1854 33.4036 32.1286 33.4535 32.0694 33.4982L32.0476 33.5148C31.9998 33.5507 31.9519 33.5811 31.904 33.6115L31.8453 33.6419C31.7996 33.6641 31.756 33.6862 31.7082 33.7028L31.6559 33.7221C31.6059 33.7387 31.5537 33.7525 31.5014 33.7636H31.4601C31.3937 33.7746 31.3268 33.7802 31.2599 33.7802" fill="#CCCCCC"/>
<path d="M31.2708 33.8051C31.2038 33.8051 31.137 33.7995 31.0706 33.7885H31.0292C30.977 33.7885 30.9248 33.7636 30.8747 33.747L30.8225 33.7277C30.7746 33.7083 30.7289 33.6889 30.6832 33.6641L30.6267 33.6336C30.5771 33.6068 30.5291 33.5753 30.483 33.5396L30.4591 33.523C30.3428 33.4307 30.2361 33.3202 30.1414 33.194L30.1284 33.1747C30.0301 33.0409 29.9474 32.89 29.8825 32.7267C29.7731 32.4515 29.7161 32.1475 29.7161 31.8391C29.7161 31.5308 29.7731 31.2268 29.8825 30.9516L31.2751 27.4316L32.6613 30.9571C32.7648 31.2307 32.8173 31.5309 32.8147 31.8345C32.812 32.138 32.7543 32.4367 32.646 32.7074C32.5806 32.8687 32.4986 33.0184 32.4023 33.1525L32.3871 33.1719C32.341 33.2351 32.2916 33.2942 32.2391 33.3488C32.1854 33.4036 32.1286 33.4535 32.0694 33.4982L32.0476 33.5148C31.9998 33.5507 31.9519 33.5811 31.904 33.6115L31.8453 33.6419C31.7996 33.6641 31.756 33.6862 31.7082 33.7028L31.6559 33.7221C31.6059 33.7387 31.5537 33.7525 31.5014 33.7636H31.4601C31.3937 33.7746 31.3268 33.7802 31.2599 33.7802" fill="#A95B21"/>
<path d="M17.9079 33.8075C17.643 33.8065 17.3826 33.7197 17.1514 33.5553C16.9201 33.3909 16.7258 33.1542 16.5866 32.8677C16.4474 32.5813 16.368 32.2544 16.3559 31.9181C16.3438 31.5817 16.3994 31.2471 16.5174 30.9456L19.0873 24.4201C19.2717 23.9515 19.5951 23.5952 19.9862 23.4295C20.1799 23.3475 20.3844 23.3147 20.588 23.3331C20.7917 23.3515 20.9905 23.4207 21.1731 23.5367C21.3557 23.6527 21.5185 23.8133 21.6523 24.0092C21.7861 24.2052 21.8881 24.4328 21.9527 24.6789C22.0172 24.925 22.043 25.1848 22.0286 25.4436C22.0141 25.7023 21.9596 25.9549 21.8683 26.187L19.3006 32.7153C19.1723 33.0459 18.9741 33.3246 18.7281 33.52C18.482 33.7153 18.198 33.8197 17.9079 33.8213" fill="#8D54A2"/>
<path d="M23.0347 33.8075C22.7445 33.8062 22.4604 33.702 22.2144 33.5065C21.9683 33.3111 21.7701 33.0323 21.642 32.7014L19.0743 26.187C18.8899 25.7184 18.8596 25.1759 18.9899 24.6789C19.1203 24.1818 19.4007 23.771 19.7695 23.5367C20.1383 23.3024 20.5652 23.2638 20.9564 23.4295C21.3475 23.5952 21.6709 23.9515 21.8553 24.4201L24.4252 30.9456C24.5432 31.2471 24.5988 31.5817 24.5867 31.9181C24.5747 32.2544 24.4953 32.5813 24.3561 32.8677C24.2169 33.1542 24.0225 33.3909 23.7913 33.5553C23.5601 33.7197 23.2997 33.8065 23.0347 33.8075Z" fill="#8D54A2"/>
<path d="M20.4604 29.6997L19.0743 26.1881L19.0547 26.1328L19.0743 26.1826L20.4713 29.7274" fill="#CCCCCC"/>
<path d="M20.4604 29.6997L19.0743 26.1881L19.0547 26.1328L19.0743 26.1826L20.4713 29.7274" fill="#6A3E72"/>
<path d="M20.4712 29.7273L19.0742 26.188L19.0546 26.1327C18.891 25.6604 18.8793 25.1255 19.0219 24.6424L19.0981 24.4488C19.2221 24.1343 19.4099 23.8676 19.6421 23.6761C19.8742 23.4846 20.1424 23.3752 20.419 23.3594H20.5495L20.6714 23.3732C20.9192 23.4137 21.1555 23.53 21.3602 23.712C21.5648 23.8941 21.7317 24.1364 21.8464 24.4184L21.9226 24.6119C21.9979 24.8656 22.0312 25.1362 22.0203 25.407C22.0094 25.6777 21.9547 25.9427 21.8595 26.1853L20.4712 29.7273Z" fill="#CCCCCC"/>
<path d="M20.4712 29.7273L19.0742 26.188L19.0546 26.1327C18.891 25.6604 18.8793 25.1255 19.0219 24.6424L19.0981 24.4488C19.2221 24.1343 19.4099 23.8676 19.6421 23.6761C19.8742 23.4846 20.1424 23.3752 20.419 23.3594H20.5495L20.6714 23.3732C20.9192 23.4137 21.1555 23.53 21.3602 23.712C21.5648 23.8941 21.7317 24.1364 21.8464 24.4184L21.9226 24.6119C21.9979 24.8656 22.0312 25.1362 22.0203 25.407C22.0094 25.6777 21.9547 25.9427 21.8595 26.1853L20.4712 29.7273Z" fill="#6A3E72"/>
<path d="M38.7199 12.5845L35.2861 13.8924C35.2439 13.9079 35.2063 13.9393 35.1784 13.9825C35.1504 14.0257 35.1335 14.0786 35.1297 14.1343C35.1259 14.19 35.1355 14.2459 35.1573 14.2945C35.179 14.3431 35.2118 14.3822 35.2513 14.4067L39.9233 17.3791C39.9623 17.4043 40.0065 17.4139 40.0499 17.4067C40.0933 17.3996 40.134 17.3759 40.1667 17.3389C40.1993 17.3018 40.2224 17.2531 40.233 17.1992C40.2435 17.1452 40.241 17.0884 40.2258 17.0362L38.9854 12.7642C38.9679 12.6966 38.9305 12.6402 38.8811 12.6067C38.8316 12.5732 38.7739 12.5653 38.7199 12.5845Z" fill="#F58220"/>
<path d="M23.0434 33.8075C22.7785 33.8066 22.5181 33.7198 22.2869 33.5553C22.0556 33.3909 21.8613 33.1543 21.7221 32.8678C21.5829 32.5813 21.5035 32.2545 21.4914 31.9181C21.4793 31.5818 21.5349 31.2471 21.6529 30.9457L25.7874 20.4661C25.9862 20.0318 26.3079 19.7101 26.6869 19.5666C27.0658 19.4231 27.4736 19.4686 27.8271 19.6939C28.1806 19.9192 28.4532 20.3073 28.5893 20.779C28.7254 21.2508 28.7148 21.7708 28.5597 22.233L24.4252 32.7153C24.2977 33.0462 24.0999 33.3251 23.8542 33.5205C23.6085 33.716 23.3246 33.8202 23.0347 33.8213" fill="#F58220"/>
<path d="M23.039 33.8067H22.9955C22.9484 33.8109 22.9011 33.8109 22.854 33.8067C22.8123 33.8002 22.7709 33.791 22.73 33.7791H22.6778C22.6255 33.7625 22.5733 33.7431 22.5211 33.721C22.4636 33.6958 22.4076 33.6653 22.3535 33.6298C21.9851 33.3954 21.7048 32.9849 21.5743 32.4883C21.4437 31.9917 21.4736 31.4495 21.6572 30.9808L23.0433 27.4609L24.4273 30.9808C24.6044 31.4465 24.6305 31.9819 24.4998 32.4718C24.3692 32.9616 24.0923 33.3666 23.7288 33.5993C23.6748 33.6349 23.6188 33.6654 23.5612 33.6906C23.5112 33.7127 23.459 33.7321 23.4089 33.7487H23.3545C23.3136 33.7606 23.2722 33.7698 23.2305 33.7763C23.1834 33.7805 23.1361 33.7805 23.089 33.7763H23.0455" fill="#CCCCCC"/>
<path d="M23.039 33.8067H22.9955C22.9484 33.8109 22.9011 33.8109 22.854 33.8067C22.8123 33.8002 22.7709 33.791 22.73 33.7791H22.6778C22.6255 33.7625 22.5733 33.7431 22.5211 33.721C22.4636 33.6958 22.4076 33.6653 22.3535 33.6298C21.9851 33.3954 21.7048 32.9849 21.5743 32.4883C21.4437 31.9917 21.4736 31.4495 21.6572 30.9808L23.0433 27.4609L24.4273 30.9808C24.6044 31.4465 24.6305 31.9819 24.4998 32.4718C24.3692 32.9616 24.0923 33.3666 23.7288 33.5993C23.6748 33.6349 23.6188 33.6654 23.5612 33.6906C23.5112 33.7127 23.459 33.7321 23.4089 33.7487H23.3545C23.3136 33.7606 23.2722 33.7698 23.2305 33.7763C23.1834 33.7805 23.1361 33.7805 23.089 33.7763H23.0455" fill="#A95B21"/>
<path d="M27.1867 25.7267L28.5597 22.2344L27.1584 25.7931" fill="#CCCCCC"/>
<path d="M27.1867 25.7267L28.5597 22.2344L27.1584 25.7931" fill="#A95B21"/>
<path d="M27.1585 25.7962L25.7571 22.2375C25.5744 21.7738 25.5432 21.2373 25.67 20.7444L25.7788 20.4679C25.9081 20.1725 26.0947 19.924 26.321 19.7464C26.5473 19.5687 26.8057 19.4678 27.0714 19.4531H27.1911C27.4667 19.4562 27.7367 19.552 27.9736 19.7307C28.2106 19.9095 28.4061 20.1648 28.5402 20.4707L28.6469 20.7472C28.7735 21.2401 28.7422 21.7765 28.5598 22.2403L27.1585 25.7962Z" fill="#CCCCCC"/>
<path d="M27.1585 25.7962L25.7571 22.2375C25.5744 21.7738 25.5432 21.2373 25.67 20.7444L25.7788 20.4679C25.9081 20.1725 26.0947 19.924 26.321 19.7464C26.5473 19.5687 26.8057 19.4678 27.0714 19.4531H27.1911C27.4667 19.4562 27.7367 19.552 27.9736 19.7307C28.2106 19.9095 28.4061 20.1648 28.5402 20.4707L28.6469 20.7472C28.7735 21.2401 28.7422 21.7765 28.5598 22.2403L27.1585 25.7962Z" fill="#A95B21"/>
</g>
<mask id="path-20-outside-1_9564_7573" maskUnits="userSpaceOnUse" x="41" y="18" width="53" height="17" fill="black">
<rect fill="white" x="41" y="18" width="53" height="17"/>
<path d="M46.625 33H42.5852V19.9091H46.804C48.0739 19.9091 49.1605 20.1712 50.0639 20.6953C50.9673 21.2152 51.6598 21.9631 52.1413 22.9389C52.6229 23.9105 52.8636 25.0739 52.8636 26.429C52.8636 27.7926 52.6207 28.9666 52.1349 29.951C51.6491 30.9311 50.9418 31.6854 50.0128 32.2138C49.0838 32.7379 47.9545 33 46.625 33ZM44.1705 31.5938H46.5227C47.6051 31.5938 48.5021 31.3849 49.2138 30.9673C49.9254 30.5497 50.456 29.9553 50.8054 29.1839C51.1548 28.4126 51.3295 27.4943 51.3295 26.429C51.3295 25.3722 51.157 24.4624 50.8118 23.6996C50.4666 22.9325 49.951 22.3445 49.2649 21.9354C48.5788 21.522 47.7244 21.3153 46.7017 21.3153H44.1705V31.5938ZM58.2074 33.2301C57.5852 33.2301 57.0206 33.1129 56.5135 32.8786C56.0064 32.6399 55.6037 32.2969 55.3054 31.8494C55.0071 31.3977 54.858 30.8523 54.858 30.2131C54.858 29.6506 54.9688 29.1946 55.1903 28.8452C55.4119 28.4915 55.7081 28.2145 56.0788 28.0142C56.4496 27.8139 56.8587 27.6648 57.3061 27.5668C57.7578 27.4645 58.2116 27.3835 58.6676 27.3239C59.2642 27.2472 59.7479 27.1896 60.1186 27.1513C60.4936 27.1087 60.7663 27.0384 60.9368 26.9403C61.1115 26.8423 61.1989 26.6719 61.1989 26.429V26.3778C61.1989 25.7472 61.0263 25.2571 60.6811 24.9077C60.3402 24.5582 59.8224 24.3835 59.1278 24.3835C58.4077 24.3835 57.843 24.5412 57.4339 24.8565C57.0249 25.1719 56.7372 25.5085 56.571 25.8665L55.1392 25.3551C55.3949 24.7585 55.7358 24.294 56.1619 23.9616C56.5923 23.625 57.0611 23.3906 57.5682 23.2585C58.0795 23.1222 58.5824 23.054 59.0767 23.054C59.392 23.054 59.7543 23.0923 60.1634 23.169C60.5767 23.2415 60.9751 23.3928 61.3587 23.6229C61.7464 23.853 62.0682 24.2003 62.3239 24.6648C62.5795 25.1293 62.7074 25.7514 62.7074 26.5312V33H61.1989V31.6705H61.1222C61.0199 31.8835 60.8494 32.1115 60.6108 32.3544C60.3722 32.5973 60.0547 32.804 59.6584 32.9744C59.2621 33.1449 58.7784 33.2301 58.2074 33.2301ZM58.4375 31.875C59.0341 31.875 59.5369 31.7578 59.946 31.5234C60.3594 31.2891 60.6705 30.9865 60.8793 30.6158C61.0923 30.245 61.1989 29.8551 61.1989 29.446V28.0653C61.1349 28.142 60.9943 28.2124 60.777 28.2763C60.5639 28.3359 60.3168 28.3892 60.0355 28.4361C59.7585 28.4787 59.4879 28.517 59.2237 28.5511C58.9638 28.581 58.7528 28.6065 58.5909 28.6278C58.1989 28.679 57.8324 28.7621 57.4915 28.8771C57.1548 28.9879 56.8821 29.1562 56.6733 29.3821C56.4688 29.6037 56.3665 29.9062 56.3665 30.2898C56.3665 30.8139 56.5604 31.2102 56.9482 31.4787C57.3402 31.7429 57.8366 31.875 58.4375 31.875ZM66.9693 27.0938V33H65.4608V23.1818H66.9181V24.7159H67.046C67.2761 24.2173 67.6255 23.8168 68.0943 23.5142C68.563 23.2074 69.1681 23.054 69.9096 23.054C70.5744 23.054 71.1561 23.1903 71.6547 23.4631C72.1532 23.7315 72.541 24.1406 72.818 24.6903C73.095 25.2358 73.2335 25.9261 73.2335 26.7614V33H71.725V26.8636C71.725 26.0923 71.5247 25.4915 71.1241 25.0611C70.7235 24.6264 70.1738 24.4091 69.475 24.4091C68.9934 24.4091 68.563 24.5135 68.1838 24.7223C67.8088 24.9311 67.5126 25.2358 67.2953 25.6364C67.0779 26.0369 66.9693 26.5227 66.9693 27.0938ZM75.9901 33V23.1818H77.4986V33H75.9901ZM76.7571 21.5455C76.4631 21.5455 76.2095 21.4453 75.9964 21.245C75.7876 21.0447 75.6832 20.804 75.6832 20.5227C75.6832 20.2415 75.7876 20.0007 75.9964 19.8004C76.2095 19.6001 76.4631 19.5 76.7571 19.5C77.0511 19.5 77.3026 19.6001 77.5114 19.8004C77.7244 20.0007 77.831 20.2415 77.831 20.5227C77.831 20.804 77.7244 21.0447 77.5114 21.245C77.3026 21.4453 77.0511 21.5455 76.7571 21.5455ZM84.378 33.2045C83.432 33.2045 82.6159 32.9957 81.9299 32.5781C81.248 32.1562 80.7218 31.5682 80.351 30.8139C79.9846 30.0554 79.8013 29.1733 79.8013 28.1676C79.8013 27.1619 79.9846 26.2756 80.351 25.5085C80.7218 24.7372 81.2374 24.1364 81.8979 23.706C82.5627 23.2713 83.3382 23.054 84.2246 23.054C84.736 23.054 85.2409 23.1392 85.7395 23.3097C86.2381 23.4801 86.6919 23.7571 87.101 24.1406C87.5101 24.5199 87.8361 25.0227 88.079 25.6491C88.3219 26.2756 88.4434 27.0469 88.4434 27.9631V28.6023H80.8752V27.2983H86.9093C86.9093 26.7443 86.7985 26.25 86.5769 25.8153C86.3596 25.3807 86.0485 25.0376 85.6436 24.7862C85.2431 24.5348 84.7701 24.4091 84.2246 24.4091C83.6238 24.4091 83.1039 24.5582 82.665 24.8565C82.2303 25.1506 81.8958 25.5341 81.6614 26.0071C81.427 26.4801 81.3098 26.9872 81.3098 27.5284V28.3977C81.3098 29.1392 81.4377 29.7678 81.6934 30.2834C81.9533 30.7947 82.3134 31.1847 82.7736 31.4531C83.2338 31.7173 83.7686 31.8494 84.378 31.8494C84.7743 31.8494 85.1323 31.794 85.4519 31.6832C85.7757 31.5682 86.0549 31.3977 86.2892 31.1719C86.5236 30.9418 86.7047 30.6562 86.8326 30.3153L88.29 30.7244C88.1365 31.2188 87.8787 31.6534 87.5165 32.0284C87.1543 32.3991 86.7069 32.6889 86.1742 32.8977C85.6415 33.1023 85.0428 33.2045 84.378 33.2045ZM92.2466 19.9091V33H90.7381V19.9091H92.2466Z"/>
</mask>
<path d="M46.625 33H42.5852V19.9091H46.804C48.0739 19.9091 49.1605 20.1712 50.0639 20.6953C50.9673 21.2152 51.6598 21.9631 52.1413 22.9389C52.6229 23.9105 52.8636 25.0739 52.8636 26.429C52.8636 27.7926 52.6207 28.9666 52.1349 29.951C51.6491 30.9311 50.9418 31.6854 50.0128 32.2138C49.0838 32.7379 47.9545 33 46.625 33ZM44.1705 31.5938H46.5227C47.6051 31.5938 48.5021 31.3849 49.2138 30.9673C49.9254 30.5497 50.456 29.9553 50.8054 29.1839C51.1548 28.4126 51.3295 27.4943 51.3295 26.429C51.3295 25.3722 51.157 24.4624 50.8118 23.6996C50.4666 22.9325 49.951 22.3445 49.2649 21.9354C48.5788 21.522 47.7244 21.3153 46.7017 21.3153H44.1705V31.5938ZM58.2074 33.2301C57.5852 33.2301 57.0206 33.1129 56.5135 32.8786C56.0064 32.6399 55.6037 32.2969 55.3054 31.8494C55.0071 31.3977 54.858 30.8523 54.858 30.2131C54.858 29.6506 54.9688 29.1946 55.1903 28.8452C55.4119 28.4915 55.7081 28.2145 56.0788 28.0142C56.4496 27.8139 56.8587 27.6648 57.3061 27.5668C57.7578 27.4645 58.2116 27.3835 58.6676 27.3239C59.2642 27.2472 59.7479 27.1896 60.1186 27.1513C60.4936 27.1087 60.7663 27.0384 60.9368 26.9403C61.1115 26.8423 61.1989 26.6719 61.1989 26.429V26.3778C61.1989 25.7472 61.0263 25.2571 60.6811 24.9077C60.3402 24.5582 59.8224 24.3835 59.1278 24.3835C58.4077 24.3835 57.843 24.5412 57.4339 24.8565C57.0249 25.1719 56.7372 25.5085 56.571 25.8665L55.1392 25.3551C55.3949 24.7585 55.7358 24.294 56.1619 23.9616C56.5923 23.625 57.0611 23.3906 57.5682 23.2585C58.0795 23.1222 58.5824 23.054 59.0767 23.054C59.392 23.054 59.7543 23.0923 60.1634 23.169C60.5767 23.2415 60.9751 23.3928 61.3587 23.6229C61.7464 23.853 62.0682 24.2003 62.3239 24.6648C62.5795 25.1293 62.7074 25.7514 62.7074 26.5312V33H61.1989V31.6705H61.1222C61.0199 31.8835 60.8494 32.1115 60.6108 32.3544C60.3722 32.5973 60.0547 32.804 59.6584 32.9744C59.2621 33.1449 58.7784 33.2301 58.2074 33.2301ZM58.4375 31.875C59.0341 31.875 59.5369 31.7578 59.946 31.5234C60.3594 31.2891 60.6705 30.9865 60.8793 30.6158C61.0923 30.245 61.1989 29.8551 61.1989 29.446V28.0653C61.1349 28.142 60.9943 28.2124 60.777 28.2763C60.5639 28.3359 60.3168 28.3892 60.0355 28.4361C59.7585 28.4787 59.4879 28.517 59.2237 28.5511C58.9638 28.581 58.7528 28.6065 58.5909 28.6278C58.1989 28.679 57.8324 28.7621 57.4915 28.8771C57.1548 28.9879 56.8821 29.1562 56.6733 29.3821C56.4688 29.6037 56.3665 29.9062 56.3665 30.2898C56.3665 30.8139 56.5604 31.2102 56.9482 31.4787C57.3402 31.7429 57.8366 31.875 58.4375 31.875ZM66.9693 27.0938V33H65.4608V23.1818H66.9181V24.7159H67.046C67.2761 24.2173 67.6255 23.8168 68.0943 23.5142C68.563 23.2074 69.1681 23.054 69.9096 23.054C70.5744 23.054 71.1561 23.1903 71.6547 23.4631C72.1532 23.7315 72.541 24.1406 72.818 24.6903C73.095 25.2358 73.2335 25.9261 73.2335 26.7614V33H71.725V26.8636C71.725 26.0923 71.5247 25.4915 71.1241 25.0611C70.7235 24.6264 70.1738 24.4091 69.475 24.4091C68.9934 24.4091 68.563 24.5135 68.1838 24.7223C67.8088 24.9311 67.5126 25.2358 67.2953 25.6364C67.0779 26.0369 66.9693 26.5227 66.9693 27.0938ZM75.9901 33V23.1818H77.4986V33H75.9901ZM76.7571 21.5455C76.4631 21.5455 76.2095 21.4453 75.9964 21.245C75.7876 21.0447 75.6832 20.804 75.6832 20.5227C75.6832 20.2415 75.7876 20.0007 75.9964 19.8004C76.2095 19.6001 76.4631 19.5 76.7571 19.5C77.0511 19.5 77.3026 19.6001 77.5114 19.8004C77.7244 20.0007 77.831 20.2415 77.831 20.5227C77.831 20.804 77.7244 21.0447 77.5114 21.245C77.3026 21.4453 77.0511 21.5455 76.7571 21.5455ZM84.378 33.2045C83.432 33.2045 82.6159 32.9957 81.9299 32.5781C81.248 32.1562 80.7218 31.5682 80.351 30.8139C79.9846 30.0554 79.8013 29.1733 79.8013 28.1676C79.8013 27.1619 79.9846 26.2756 80.351 25.5085C80.7218 24.7372 81.2374 24.1364 81.8979 23.706C82.5627 23.2713 83.3382 23.054 84.2246 23.054C84.736 23.054 85.2409 23.1392 85.7395 23.3097C86.2381 23.4801 86.6919 23.7571 87.101 24.1406C87.5101 24.5199 87.8361 25.0227 88.079 25.6491C88.3219 26.2756 88.4434 27.0469 88.4434 27.9631V28.6023H80.8752V27.2983H86.9093C86.9093 26.7443 86.7985 26.25 86.5769 25.8153C86.3596 25.3807 86.0485 25.0376 85.6436 24.7862C85.2431 24.5348 84.7701 24.4091 84.2246 24.4091C83.6238 24.4091 83.1039 24.5582 82.665 24.8565C82.2303 25.1506 81.8958 25.5341 81.6614 26.0071C81.427 26.4801 81.3098 26.9872 81.3098 27.5284V28.3977C81.3098 29.1392 81.4377 29.7678 81.6934 30.2834C81.9533 30.7947 82.3134 31.1847 82.7736 31.4531C83.2338 31.7173 83.7686 31.8494 84.378 31.8494C84.7743 31.8494 85.1323 31.794 85.4519 31.6832C85.7757 31.5682 86.0549 31.3977 86.2892 31.1719C86.5236 30.9418 86.7047 30.6562 86.8326 30.3153L88.29 30.7244C88.1365 31.2188 87.8787 31.6534 87.5165 32.0284C87.1543 32.3991 86.7069 32.6889 86.1742 32.8977C85.6415 33.1023 85.0428 33.2045 84.378 33.2045ZM92.2466 19.9091V33H90.7381V19.9091H92.2466Z" fill="#D98135"/>
<path d="M42.5852 33H41.5852V34H42.5852V33ZM42.5852 19.9091V18.9091H41.5852V19.9091H42.5852ZM50.0639 20.6953L49.5621 21.5603L49.5651 21.562L50.0639 20.6953ZM52.1413 22.9389L51.2446 23.3814L51.2453 23.383L52.1413 22.9389ZM52.1349 29.951L53.0309 30.3951L53.0317 30.3935L52.1349 29.951ZM50.0128 32.2138L50.5042 33.0847L50.5072 33.083L50.0128 32.2138ZM44.1705 31.5938H43.1705V32.5938H44.1705V31.5938ZM50.8118 23.6996L49.8999 24.1099L49.9007 24.1118L50.8118 23.6996ZM49.2649 21.9354L48.7488 22.7919L48.7528 22.7943L49.2649 21.9354ZM44.1705 21.3153V20.3153H43.1705V21.3153H44.1705ZM46.625 32H42.5852V34H46.625V32ZM43.5852 33V19.9091H41.5852V33H43.5852ZM42.5852 20.9091H46.804V18.9091H42.5852V20.9091ZM46.804 20.9091C47.9355 20.9091 48.8409 21.1419 49.5621 21.5603L50.5658 19.8304C49.4801 19.2005 48.2122 18.9091 46.804 18.9091V20.9091ZM49.5651 21.562C50.289 21.9786 50.8467 22.575 51.2446 23.3814L53.0381 22.4964C52.4729 21.3511 51.6457 20.4518 50.5627 19.8286L49.5651 21.562ZM51.2453 23.383C51.6435 24.1864 51.8636 25.1904 51.8636 26.429H53.8636C53.8636 24.9574 53.6022 23.6346 53.0373 22.4949L51.2453 23.383ZM51.8636 26.429C51.8636 27.6755 51.6416 28.691 51.2382 29.5084L53.0317 30.3935C53.5999 29.2423 53.8636 27.9097 53.8636 26.429H51.8636ZM51.239 29.5069C50.8395 30.3129 50.2698 30.9171 49.5184 31.3446L50.5072 33.083C51.6137 32.4536 52.4588 31.5493 53.0309 30.3951L51.239 29.5069ZM49.5214 31.3428C48.7751 31.7639 47.8243 32 46.625 32V34C48.0848 34 49.3926 33.7119 50.5042 33.0847L49.5214 31.3428ZM44.1705 32.5938H46.5227V30.5938H44.1705V32.5938ZM46.5227 32.5938C47.729 32.5938 48.8141 32.3613 49.7199 31.8298L48.7077 30.1049C48.1902 30.4085 47.4812 30.5938 46.5227 30.5938V32.5938ZM49.7199 31.8298C50.6146 31.3048 51.284 30.5508 51.7163 29.5966L49.8945 28.7713C49.6279 29.3597 49.2362 29.7947 48.7077 30.1049L49.7199 31.8298ZM51.7163 29.5966C52.1375 28.6668 52.3295 27.6011 52.3295 26.429H50.3295C50.3295 27.3876 50.1721 28.1585 49.8945 28.7713L51.7163 29.5966ZM52.3295 26.429C52.3295 25.2661 52.1399 24.2089 51.7229 23.2873L49.9007 24.1118C50.174 24.7158 50.3295 25.4783 50.3295 26.429H52.3295ZM51.7237 23.2892C51.2991 22.3457 50.6489 21.5963 49.7771 21.0765L48.7528 22.7943C49.2531 23.0926 49.6341 23.5193 49.8999 24.1099L51.7237 23.2892ZM49.781 21.0788C48.9015 20.549 47.8567 20.3153 46.7017 20.3153V22.3153C47.5922 22.3153 48.2562 22.4951 48.7489 22.7919L49.781 21.0788ZM46.7017 20.3153H44.1705V22.3153H46.7017V20.3153ZM43.1705 21.3153V31.5938H45.1705V21.3153H43.1705ZM56.5135 32.8786L56.0877 33.7834L56.094 33.7863L56.5135 32.8786ZM55.3054 31.8494L54.4709 32.4005L54.4733 32.4041L55.3054 31.8494ZM55.1903 28.8452L56.0349 29.3807L56.0378 29.3761L55.1903 28.8452ZM57.3061 27.5668L57.5201 28.5436L57.5269 28.5421L57.3061 27.5668ZM58.6676 27.3239L58.5401 26.332L58.5379 26.3323L58.6676 27.3239ZM60.1186 27.1513L60.2215 28.146L60.2315 28.1449L60.1186 27.1513ZM60.9368 26.9403L60.4475 26.0681L60.4383 26.0734L60.9368 26.9403ZM60.6811 24.9077L59.9653 25.606L59.9697 25.6104L60.6811 24.9077ZM57.4339 24.8565L58.0445 25.6485L58.0445 25.6485L57.4339 24.8565ZM56.571 25.8665L56.2347 26.8082L57.0938 27.1151L57.478 26.2876L56.571 25.8665ZM55.1392 25.3551L54.2201 24.9612L53.801 25.939L54.8029 26.2969L55.1392 25.3551ZM56.1619 23.9616L56.777 24.7502L56.778 24.7493L56.1619 23.9616ZM57.5682 23.2585L57.8203 24.2262L57.8258 24.2248L57.5682 23.2585ZM60.1634 23.169L59.9791 24.152L59.9907 24.154L60.1634 23.169ZM61.3587 23.6229L60.8442 24.4804L60.8483 24.4829L61.3587 23.6229ZM62.3239 24.6648L61.4478 25.147L61.4478 25.147L62.3239 24.6648ZM62.7074 33V34H63.7074V33H62.7074ZM61.1989 33H60.1989V34H61.1989V33ZM61.1989 31.6705H62.1989V30.6705H61.1989V31.6705ZM61.1222 31.6705V30.6705H60.4929L60.2206 31.2377L61.1222 31.6705ZM60.6108 32.3544L61.3241 33.0552L61.3241 33.0552L60.6108 32.3544ZM59.6584 32.9744L59.2633 32.0558L59.6584 32.9744ZM59.946 31.5234L59.4528 30.6535L59.4489 30.6558L59.946 31.5234ZM60.8793 30.6158L60.0122 30.1175L60.008 30.125L60.8793 30.6158ZM61.1989 28.0653H62.1989V25.3033L60.4306 27.4252L61.1989 28.0653ZM60.777 28.2763L61.0466 29.2393L61.0592 29.2356L60.777 28.2763ZM60.0355 28.4361L60.1876 29.4245L60.1999 29.4225L60.0355 28.4361ZM59.2237 28.5511L59.3377 29.5447L59.3517 29.5429L59.2237 28.5511ZM58.5909 28.6278L58.7202 29.6194L58.7214 29.6193L58.5909 28.6278ZM57.4915 28.8771L57.8041 29.827L57.8113 29.8246L57.4915 28.8771ZM56.6733 29.3821L55.939 28.7032L55.9385 28.7038L56.6733 29.3821ZM56.9482 31.4787L56.3789 32.3009L56.3893 32.308L56.9482 31.4787ZM58.2074 32.2301C57.7135 32.2301 57.2944 32.1378 56.933 31.9708L56.094 33.7863C56.7468 34.088 57.4569 34.2301 58.2074 34.2301V32.2301ZM56.9393 31.9737C56.5897 31.8092 56.3304 31.5841 56.1374 31.2947L54.4733 32.4041C54.877 33.0096 55.4231 33.4706 56.0877 33.7834L56.9393 31.9737ZM56.1399 31.2984C55.9679 31.0379 55.858 30.6924 55.858 30.2131H53.858C53.858 31.0121 54.0464 31.7576 54.4709 32.4005L56.1399 31.2984ZM55.858 30.2131C55.858 29.7742 55.9452 29.5221 56.0348 29.3807L54.3458 28.3096C53.9923 28.8671 53.858 29.5269 53.858 30.2131H55.858ZM56.0378 29.3761C56.1666 29.1704 56.334 29.013 56.5541 28.894L55.6035 27.1344C55.0822 27.416 54.6572 27.8126 54.3429 28.3143L56.0378 29.3761ZM56.5541 28.894C56.8359 28.7418 57.156 28.6234 57.5201 28.5436L57.0921 26.5899C56.5614 26.7062 56.0632 26.886 55.6035 27.1344L56.5541 28.894ZM57.5269 28.5421C57.9488 28.4466 58.3722 28.371 58.7973 28.3154L58.5379 26.3323C58.0511 26.396 57.5669 26.4824 57.0853 26.5914L57.5269 28.5421ZM58.7951 28.3157C59.3878 28.2395 59.8624 28.1831 60.2215 28.146L60.0157 26.1566C59.6333 26.1961 59.1406 26.2548 58.5401 26.332L58.7951 28.3157ZM60.2315 28.1449C60.6404 28.0984 61.0815 28.0107 61.4353 27.8072L60.4383 26.0734C60.4567 26.0629 60.4382 26.0767 60.3548 26.0982C60.2755 26.1187 60.1615 26.14 60.0057 26.1577L60.2315 28.1449ZM61.426 27.8125C61.9882 27.4971 62.1989 26.9426 62.1989 26.429H60.1989C60.1989 26.4332 60.198 26.3716 60.2434 26.2829C60.2937 26.1848 60.3716 26.1108 60.4475 26.0682L61.426 27.8125ZM62.1989 26.429V26.3778H60.1989V26.429H62.1989ZM62.1989 26.3778C62.1989 25.5621 61.971 24.7906 61.3925 24.2049L59.9697 25.6104C60.0815 25.7236 60.1989 25.9322 60.1989 26.3778H62.1989ZM61.3969 24.2093C60.8001 23.5977 59.9766 23.3835 59.1278 23.3835V25.3835C59.6683 25.3835 59.8803 25.5188 59.9653 25.606L61.3969 24.2093ZM59.1278 23.3835C58.2722 23.3835 57.4648 23.5701 56.8234 24.0645L58.0445 25.6485C58.2213 25.5123 58.5432 25.3835 59.1278 25.3835V23.3835ZM56.8234 24.0645C56.3251 24.4487 55.9155 24.9038 55.664 25.4454L57.478 26.2876C57.559 26.1132 57.7247 25.8951 58.0445 25.6485L56.8234 24.0645ZM56.9074 24.9247L55.4755 24.4134L54.8029 26.2969L56.2347 26.8082L56.9074 24.9247ZM56.0583 25.749C56.2609 25.2764 56.5082 24.9598 56.777 24.7502L55.5469 23.1731C54.9634 23.6283 54.5289 24.2406 54.2201 24.9612L56.0583 25.749ZM56.778 24.7493C57.1054 24.4933 57.4512 24.3224 57.8203 24.2262L57.3161 22.2908C56.671 22.4589 56.0793 22.7567 55.5458 23.174L56.778 24.7493ZM57.8258 24.2248C58.2591 24.1092 58.6753 24.054 59.0767 24.054V22.054C58.4895 22.054 57.9 22.1351 57.3105 22.2923L57.8258 24.2248ZM59.0767 24.054C59.3142 24.054 59.6127 24.0832 59.9791 24.1519L60.3476 22.1862C59.8958 22.1014 59.4698 22.054 59.0767 22.054V24.054ZM59.9907 24.154C60.2755 24.2039 60.5588 24.3092 60.8442 24.4804L61.8732 22.7654C61.3914 22.4763 60.8779 22.279 60.336 22.184L59.9907 24.154ZM60.8483 24.4829C61.0576 24.607 61.2629 24.8111 61.4478 25.147L63.1999 24.1825C62.8735 23.5895 62.4353 23.0989 61.869 22.7629L60.8483 24.4829ZM61.4478 25.147C61.5928 25.4104 61.7074 25.8463 61.7074 26.5312H63.7074C63.7074 25.6566 63.5663 24.8481 63.1999 24.1825L61.4478 25.147ZM61.7074 26.5312V33H63.7074V26.5312H61.7074ZM62.7074 32H61.1989V34H62.7074V32ZM62.1989 33V31.6705H60.1989V33H62.1989ZM61.1989 30.6705H61.1222V32.6705H61.1989V30.6705ZM60.2206 31.2377C60.1819 31.3185 60.09 31.4576 59.8975 31.6536L61.3241 33.0552C61.6089 32.7654 61.8579 32.4486 62.0237 32.1032L60.2206 31.2377ZM59.8975 31.6536C59.7705 31.7828 59.571 31.9235 59.2633 32.0558L60.0535 33.8931C60.5384 33.6845 60.9738 33.4118 61.3241 33.0552L59.8975 31.6536ZM59.2633 32.0558C59.0251 32.1582 58.6843 32.2301 58.2074 32.2301V34.2301C58.8725 34.2301 59.499 34.1315 60.0535 33.8931L59.2633 32.0558ZM58.4375 32.875C59.163 32.875 59.8476 32.7323 60.4431 32.3911L59.4489 30.6558C59.2263 30.7833 58.9052 30.875 58.4375 30.875V32.875ZM60.4393 32.3933C60.9918 32.08 61.4424 31.6536 61.7506 31.1065L60.008 30.125C59.8985 30.3194 59.7269 30.4981 59.4528 30.6535L60.4393 32.3933ZM61.7463 31.1141C62.0424 30.5988 62.1989 30.038 62.1989 29.446H60.1989C60.1989 29.6722 60.1423 29.8912 60.0122 30.1175L61.7463 31.1141ZM62.1989 29.446V28.0653H60.1989V29.446H62.1989ZM60.4306 27.4252C60.4806 27.3652 60.5269 27.3283 60.5529 27.3097C60.5796 27.2905 60.5969 27.2818 60.5982 27.2812C60.6002 27.2802 60.5932 27.2838 60.5745 27.2908C60.5561 27.2977 60.53 27.3066 60.4948 27.3169L61.0592 29.2356C61.2021 29.1936 61.3519 29.1404 61.4927 29.07C61.6232 29.0048 61.8107 28.8932 61.9671 28.7055L60.4306 27.4252ZM60.5074 27.3133C60.3371 27.361 60.1264 27.4071 59.8711 27.4497L60.1999 29.4225C60.5071 29.3713 60.7907 29.3109 61.0466 29.2392L60.5074 27.3133ZM59.8835 27.4477C59.6141 27.4892 59.3515 27.5264 59.0958 27.5594L59.3517 29.5429C59.6243 29.5077 59.903 29.4682 60.1876 29.4245L59.8835 27.4477ZM59.1097 27.5577C58.8471 27.5878 58.6301 27.6141 58.4605 27.6364L58.7214 29.6193C58.8756 29.599 59.0804 29.5741 59.3377 29.5446L59.1097 27.5577ZM58.4616 27.6362C58.011 27.695 57.5802 27.7918 57.1717 27.9296L57.8113 29.8246C58.0845 29.7324 58.3867 29.6629 58.7202 29.6194L58.4616 27.6362ZM57.1789 27.9273C56.7057 28.083 56.2796 28.3349 55.939 28.7032L57.4076 30.061C57.4846 29.9776 57.6039 29.8929 57.8041 29.827L57.1789 27.9273ZM55.9385 28.7038C55.5208 29.1563 55.3665 29.7257 55.3665 30.2898H57.3665C57.3665 30.1857 57.3805 30.1252 57.3905 30.0954C57.3994 30.0691 57.4066 30.062 57.4081 30.0604L55.9385 28.7038ZM55.3665 30.2898C55.3665 31.0994 55.6881 31.8226 56.3789 32.3009L57.5174 30.6565C57.4327 30.5979 57.3665 30.5284 57.3665 30.2898H55.3665ZM56.3893 32.308C56.9861 32.7101 57.6913 32.875 58.4375 32.875V30.875C57.982 30.875 57.6943 30.7757 57.507 30.6494L56.3893 32.308ZM66.9693 33V34H67.9693V33H66.9693ZM65.4608 33H64.4608V34H65.4608V33ZM65.4608 23.1818V22.1818H64.4608V23.1818H65.4608ZM66.9181 23.1818H67.9181V22.1818H66.9181V23.1818ZM66.9181 24.7159H65.9181V25.7159H66.9181V24.7159ZM67.046 24.7159V25.7159H67.6858L67.9539 25.135L67.046 24.7159ZM68.0943 23.5142L68.6366 24.3544L68.6419 24.3509L68.0943 23.5142ZM71.6547 23.4631L71.1747 24.3404L71.1806 24.3435L71.6547 23.4631ZM72.818 24.6903L71.925 25.1403L71.9264 25.1431L72.818 24.6903ZM73.2335 33V34H74.2335V33H73.2335ZM71.725 33H70.725V34H71.725V33ZM71.1241 25.0611L70.3887 25.7388L70.3921 25.7424L71.1241 25.0611ZM68.1838 24.7223L67.7015 23.8463L67.6973 23.8486L68.1838 24.7223ZM67.2953 25.6364L66.4163 25.1595L66.4163 25.1595L67.2953 25.6364ZM65.9693 27.0938V33H67.9693V27.0938H65.9693ZM66.9693 32H65.4608V34H66.9693V32ZM66.4608 33V23.1818H64.4608V33H66.4608ZM65.4608 24.1818H66.9181V22.1818H65.4608V24.1818ZM65.9181 23.1818V24.7159H67.9181V23.1818H65.9181ZM66.9181 25.7159H67.046V23.7159H66.9181V25.7159ZM67.9539 25.135C68.1032 24.8115 68.3245 24.5558 68.6366 24.3544L67.552 22.674C66.9266 23.0777 66.449 23.6232 66.138 24.2969L67.9539 25.135ZM68.6419 24.3509C68.903 24.18 69.301 24.054 69.9096 24.054V22.054C69.0353 22.054 68.2231 22.2347 67.5466 22.6775L68.6419 24.3509ZM69.9096 24.054C70.4353 24.054 70.8465 24.1608 71.1748 24.3404L72.1346 22.5857C71.4656 22.2198 70.7135 22.054 69.9096 22.054V24.054ZM71.1806 24.3435C71.4828 24.5063 71.7318 24.7569 71.925 25.1403L73.711 24.2404C73.3503 23.5243 72.8236 22.9568 72.1288 22.5826L71.1806 24.3435ZM71.9264 25.1431C72.111 25.5066 72.2335 26.0289 72.2335 26.7614H74.2335C74.2335 25.8233 74.079 24.965 73.7096 24.2376L71.9264 25.1431ZM72.2335 26.7614V33H74.2335V26.7614H72.2335ZM73.2335 32H71.725V34H73.2335V32ZM72.725 33V26.8636H70.725V33H72.725ZM72.725 26.8636C72.725 25.9206 72.4772 25.0471 71.8561 24.3798L70.3921 25.7424C70.5722 25.9359 70.725 26.2641 70.725 26.8636H72.725ZM71.8595 24.3834C71.235 23.7058 70.3977 23.4091 69.475 23.4091V25.4091C69.9499 25.4091 70.2121 25.5471 70.3888 25.7388L71.8595 24.3834ZM69.475 23.4091C68.8441 23.4091 68.2445 23.5473 67.7015 23.8463L68.6661 25.5983C68.8816 25.4797 69.1428 25.4091 69.475 25.4091V23.4091ZM67.6973 23.8486C67.146 24.1556 66.7183 24.6029 66.4163 25.1595L68.1742 26.1132C68.3069 25.8687 68.4715 25.7067 68.6703 25.596L67.6973 23.8486ZM66.4163 25.1595C66.1019 25.739 65.9693 26.3976 65.9693 27.0938H67.9693C67.9693 26.6479 68.054 26.3349 68.1742 26.1132L66.4163 25.1595ZM75.9901 33H74.9901V34H75.9901V33ZM75.9901 23.1818V22.1818H74.9901V23.1818H75.9901ZM77.4986 23.1818H78.4986V22.1818H77.4986V23.1818ZM77.4986 33V34H78.4986V33H77.4986ZM75.9964 21.245L75.3042 21.9667L75.3115 21.9737L75.9964 21.245ZM75.9964 19.8004L75.3115 19.0718L75.3042 19.0787L75.9964 19.8004ZM77.5114 19.8004L76.8191 20.5221L76.8265 20.5291L77.5114 19.8004ZM77.5114 21.245L76.8264 20.5164L76.8191 20.5233L77.5114 21.245ZM76.9901 33V23.1818H74.9901V33H76.9901ZM75.9901 24.1818H77.4986V22.1818H75.9901V24.1818ZM76.4986 23.1818V33H78.4986V23.1818H76.4986ZM77.4986 32H75.9901V34H77.4986V32ZM76.7571 20.5455C76.7259 20.5455 76.7147 20.5406 76.7138 20.5403C76.713 20.5399 76.7025 20.5363 76.6814 20.5164L75.3115 21.9737C75.7112 22.3493 76.2101 22.5455 76.7571 22.5455V20.5455ZM76.6887 20.5233C76.6788 20.5138 76.675 20.5086 76.6747 20.5082C76.6746 20.508 76.6766 20.5109 76.679 20.5164C76.6814 20.522 76.6828 20.5269 76.6834 20.53C76.684 20.5328 76.6832 20.5309 76.6832 20.5227H74.6832C74.6832 21.0851 74.9052 21.5839 75.3042 21.9667L76.6887 20.5233ZM76.6832 20.5227C76.6832 20.5146 76.684 20.5126 76.6834 20.5155C76.6828 20.5185 76.6814 20.5235 76.679 20.529C76.6766 20.5346 76.6746 20.5374 76.6747 20.5372C76.675 20.5369 76.6788 20.5316 76.6887 20.5221L75.3042 19.0787C74.9052 19.4615 74.6832 19.9603 74.6832 20.5227H76.6832ZM76.6814 20.5291C76.7025 20.5092 76.713 20.5055 76.7138 20.5052C76.7147 20.5048 76.7259 20.5 76.7571 20.5V18.5C76.2101 18.5 75.7112 18.6961 75.3115 19.0718L76.6814 20.5291ZM76.7571 20.5C76.7737 20.5 76.7839 20.5014 76.7891 20.5023C76.794 20.5033 76.796 20.5041 76.7962 20.5041C76.7963 20.5042 76.7974 20.5046 76.8001 20.5064C76.803 20.5082 76.8094 20.5128 76.8191 20.5221L78.2036 19.0787C77.8052 18.6967 77.3045 18.5 76.7571 18.5V20.5ZM76.8265 20.5291C76.8371 20.539 76.8411 20.5446 76.8414 20.545C76.8416 20.5452 76.8393 20.5421 76.8366 20.5359C76.8338 20.5296 76.8321 20.5236 76.8312 20.5193C76.8303 20.5152 76.831 20.5159 76.831 20.5227H78.831C78.831 19.9534 78.6014 19.4526 78.1963 19.0718L76.8265 20.5291ZM76.831 20.5227C76.831 20.5296 76.8303 20.5302 76.8312 20.5261C76.8321 20.5218 76.8338 20.5159 76.8366 20.5096C76.8393 20.5034 76.8416 20.5002 76.8414 20.5004C76.8411 20.5009 76.8371 20.5064 76.8265 20.5164L78.1963 21.9737C78.6014 21.5928 78.831 21.092 78.831 20.5227H76.831ZM76.8191 20.5233C76.8094 20.5327 76.803 20.5372 76.8001 20.5391C76.7974 20.5409 76.7963 20.5413 76.7962 20.5413C76.796 20.5414 76.794 20.5422 76.7891 20.5431C76.7839 20.5441 76.7737 20.5455 76.7571 20.5455V22.5455C77.3045 22.5455 77.8052 22.3488 78.2036 21.9667L76.8191 20.5233ZM81.9299 32.5781L81.4037 33.4285L81.4099 33.4323L81.9299 32.5781ZM80.351 30.8139L79.4506 31.249L79.4536 31.255L80.351 30.8139ZM80.351 25.5085L79.4497 25.0753L79.4487 25.0774L80.351 25.5085ZM81.8979 23.706L82.4438 24.5438L82.4452 24.5429L81.8979 23.706ZM85.7395 23.3097L86.063 22.3634L86.063 22.3634L85.7395 23.3097ZM87.101 24.1406L86.4171 24.8702L86.4212 24.874L87.101 24.1406ZM88.079 25.6491L89.0114 25.2876L89.0114 25.2876L88.079 25.6491ZM88.4434 28.6023V29.6023H89.4434V28.6023H88.4434ZM80.8752 28.6023H79.8752V29.6023H80.8752V28.6023ZM80.8752 27.2983V26.2983H79.8752V27.2983H80.8752ZM86.9093 27.2983V28.2983H87.9093V27.2983H86.9093ZM86.5769 25.8153L85.6824 26.2626L85.686 26.2695L86.5769 25.8153ZM85.6436 24.7862L85.112 25.6332L85.1161 25.6357L85.6436 24.7862ZM82.665 24.8565L83.2253 25.6848L83.227 25.6836L82.665 24.8565ZM81.6614 26.0071L80.7654 25.5631L80.7654 25.5631L81.6614 26.0071ZM81.6934 30.2834L80.7974 30.7277L80.8019 30.7365L81.6934 30.2834ZM82.7736 31.4531L82.2697 32.3169L82.2757 32.3204L82.7736 31.4531ZM85.4519 31.6832L85.7794 32.6281L85.7866 32.6255L85.4519 31.6832ZM86.2892 31.1719L86.9832 31.892L86.9898 31.8854L86.2892 31.1719ZM86.8326 30.3153L87.1028 29.3526L86.2187 29.1044L85.8962 29.9642L86.8326 30.3153ZM88.29 30.7244L89.245 31.0208L89.5496 30.0394L88.5602 29.7616L88.29 30.7244ZM87.5165 32.0284L88.2318 32.7273L88.2358 32.7231L87.5165 32.0284ZM86.1742 32.8977L86.5327 33.8313L86.5391 33.8288L86.1742 32.8977ZM84.378 32.2045C83.5824 32.2045 82.9533 32.0304 82.4498 31.7239L81.4099 33.4323C82.2786 33.9611 83.2816 34.2045 84.378 34.2045V32.2045ZM82.456 31.7277C81.9419 31.4096 81.5405 30.967 81.2485 30.3728L79.4536 31.255C79.903 32.1694 80.5542 32.9029 81.4037 33.4285L82.456 31.7277ZM81.2514 30.3789C80.962 29.7798 80.8013 29.0515 80.8013 28.1676H78.8013C78.8013 29.2951 79.0071 30.331 79.4506 31.249L81.2514 30.3789ZM80.8013 28.1676C80.8013 27.2841 80.9619 26.5496 81.2533 25.9396L79.4487 25.0774C79.0072 26.0015 78.8013 27.0398 78.8013 28.1676H80.8013ZM81.2523 25.9417C81.5508 25.3207 81.9496 24.8659 82.4438 24.5438L81.352 22.8681C80.5252 23.4069 79.8927 24.1538 79.4497 25.0753L81.2523 25.9417ZM82.4452 24.5429C82.9287 24.2267 83.5093 24.054 84.2246 24.054V22.054C83.1672 22.054 82.1966 22.3159 81.3507 22.869L82.4452 24.5429ZM84.2246 24.054C84.6226 24.054 85.0184 24.1199 85.416 24.2559L86.063 22.3634C85.4635 22.1585 84.8494 22.054 84.2246 22.054V24.054ZM85.416 24.2559C85.772 24.3776 86.1047 24.5773 86.4171 24.8702L87.785 23.4111C87.2792 22.9369 86.7043 22.5827 86.063 22.3634L85.416 24.2559ZM86.4212 24.874C86.6985 25.1311 86.9476 25.4972 87.1467 26.0107L89.0114 25.2876C88.7247 24.5482 88.3217 23.9087 87.7809 23.4073L86.4212 24.874ZM87.1467 26.0107C87.3318 26.4882 87.4434 27.1285 87.4434 27.9631H89.4434C89.4434 26.9653 89.312 26.0629 89.0114 25.2876L87.1467 26.0107ZM87.4434 27.9631V28.6023H89.4434V27.9631H87.4434ZM88.4434 27.6023H80.8752V29.6023H88.4434V27.6023ZM81.8752 28.6023V27.2983H79.8752V28.6023H81.8752ZM80.8752 28.2983H86.9093V26.2983H80.8752V28.2983ZM87.9093 27.2983C87.9093 26.608 87.7703 25.9545 87.4678 25.3612L85.686 26.2695C85.8267 26.5455 85.9093 26.8806 85.9093 27.2983H87.9093ZM87.4713 25.3681C87.173 24.7715 86.7364 24.2877 86.1712 23.9367L85.1161 25.6357C85.3605 25.7875 85.5461 25.9899 85.6825 26.2626L87.4713 25.3681ZM86.1753 23.9392C85.5922 23.5733 84.9287 23.4091 84.2246 23.4091V25.4091C84.6114 25.4091 84.894 25.4963 85.112 25.6332L86.1753 23.9392ZM84.2246 23.4091C83.4507 23.4091 82.7289 23.604 82.1029 24.0295L83.227 25.6836C83.4788 25.5125 83.7968 25.4091 84.2246 25.4091V23.4091ZM82.1046 24.0283C81.5258 24.4198 81.076 24.9361 80.7654 25.5631L82.5574 26.4511C82.7155 26.1321 82.9348 25.8813 83.2253 25.6848L82.1046 24.0283ZM80.7654 25.5631C80.4608 26.1777 80.3098 26.8372 80.3098 27.5284H82.3098C82.3098 27.1372 82.3932 26.7825 82.5574 26.4511L80.7654 25.5631ZM80.3098 27.5284V28.3977H82.3098V27.5284H80.3098ZM80.3098 28.3977C80.3098 29.2504 80.4565 30.04 80.7975 30.7276L82.5893 29.8391C82.4189 29.4955 82.3098 29.028 82.3098 28.3977H80.3098ZM80.8019 30.7365C81.142 31.4055 81.6308 31.9442 82.2697 32.3169L83.2775 30.5893C82.996 30.4252 82.7646 30.184 82.5848 29.8302L80.8019 30.7365ZM82.2757 32.3204C82.9088 32.6838 83.6202 32.8494 84.378 32.8494V30.8494C83.9171 30.8494 83.5589 30.7509 83.2715 30.5859L82.2757 32.3204ZM84.378 32.8494C84.8671 32.8494 85.3382 32.781 85.7794 32.6281L85.1243 30.7384C84.9264 30.807 84.6815 30.8494 84.378 30.8494V32.8494ZM85.7866 32.6255C86.237 32.4655 86.6405 32.2221 86.9831 31.892L85.5953 30.4518C85.4692 30.5734 85.3145 30.6708 85.1171 30.7409L85.7866 32.6255ZM86.9898 31.8854C87.3391 31.5425 87.5954 31.129 87.7689 30.6665L85.8962 29.9642C85.814 30.1835 85.7081 30.341 85.5887 30.4583L86.9898 31.8854ZM86.5623 31.2781L88.0197 31.6872L88.5602 29.7616L87.1028 29.3526L86.5623 31.2781ZM87.3349 30.428C87.2282 30.7718 87.0516 31.0703 86.7973 31.3337L88.2358 32.7231C88.7058 32.2365 89.0449 31.6657 89.245 31.0208L87.3349 30.428ZM86.8012 31.3296C86.5479 31.5889 86.2238 31.8042 85.8092 31.9667L86.5391 33.8288C87.1899 33.5736 87.7607 33.2094 88.2318 32.7272L86.8012 31.3296ZM85.8157 31.9642C85.4147 32.1182 84.9401 32.2045 84.378 32.2045V34.2045C85.1455 34.2045 85.8684 34.0864 86.5327 33.8313L85.8157 31.9642ZM92.2466 19.9091H93.2466V18.9091H92.2466V19.9091ZM92.2466 33V34H93.2466V33H92.2466ZM90.7381 33H89.7381V34H90.7381V33ZM90.7381 19.9091V18.9091H89.7381V19.9091H90.7381ZM91.2466 19.9091V33H93.2466V19.9091H91.2466ZM92.2466 32H90.7381V34H92.2466V32ZM91.7381 33V19.9091H89.7381V33H91.7381ZM90.7381 20.9091H92.2466V18.9091H90.7381V20.9091Z" fill="black" mask="url(#path-20-outside-1_9564_7573)"/>
<defs>
<filter id="filter0_d_9564_7573" x="0" y="0" width="58" height="58" filterUnits="userSpaceOnUse" color-interpolation-filters="sRGB">
<feFlood flood-opacity="0" result="BackgroundImageFix"/>
<feColorMatrix in="SourceAlpha" type="matrix" values="0 0 0 0 0 0 0 0 0 0 0 0 0 0 0 0 0 0 127 0" result="hardAlpha"/>
<feOffset dy="4"/>
<feGaussianBlur stdDeviation="2"/>
<feComposite in2="hardAlpha" operator="out"/>
<feColorMatrix type="matrix" values="0 0 0 0 0 0 0 0 0 0 0 0 0 0 0 0 0 0 0.25 0"/>
<feBlend mode="normal" in2="BackgroundImageFix" result="effect1_dropShadow_9564_7573"/>
<feBlend mode="normal" in="SourceGraphic" in2="effect1_dropShadow_9564_7573" result="shape"/>
</filter>
</defs>
</svg>
